<svg width="209" height="51" viewBox="0 0 209 51" fill="none" xmlns="http://www.w3.org/2000/svg">
<g clip-path="url(#clip0_13_50)">
<path d="M61.8379 14.674V5.58154H64.9496C66.3748 5.58154 67.5149 5.98302 68.3463 6.78599C69.1776 7.58896 69.6052 8.69895 69.6052 10.1159C69.6052 11.533 69.1776 12.6429 68.3463 13.4459C67.5149 14.2488 66.3748 14.6503 64.9496 14.6503L61.8379 14.674ZM63.5006 13.257H64.8546C65.8047 13.257 66.541 12.9972 67.0874 12.454C67.6337 11.9108 67.895 11.1315 67.895 10.1396C67.895 9.14766 67.6337 8.39193 67.0874 7.84874C66.541 7.30555 65.8047 7.04577 64.8783 7.04577H63.5243L63.5006 13.257Z" fill="white"/>
<path d="M71.2207 11.4154V5.58203H72.8834V11.3917C72.8834 12.0058 73.0734 12.4781 73.4297 12.8087C73.786 13.1394 74.2848 13.3047 74.9024 13.3047C75.52 13.3047 76.0189 13.1394 76.3752 12.8087C76.7315 12.4781 76.9214 12.0058 76.9214 11.3917V5.58203H78.5842V11.4154C78.5842 12.4309 78.2517 13.2575 77.5628 13.8951C76.8978 14.5327 75.9951 14.8398 74.9024 14.8398C73.786 14.8398 72.9071 14.5327 72.2183 13.8951C71.5532 13.2575 71.2207 12.4309 71.2207 11.4154Z" fill="white"/>
<path d="M80.0332 13.5874L80.9358 12.3357C81.2446 12.5955 81.6009 12.8317 82.0047 13.0206C82.4085 13.2095 82.8123 13.304 83.2161 13.304C83.6199 13.304 83.9524 13.2095 84.19 13.0206C84.4276 12.8317 84.5463 12.5719 84.5463 12.2649C84.5463 11.9578 84.4038 11.6744 84.1187 11.4383C83.8337 11.2021 83.4774 11.0132 83.0499 10.8479C82.6223 10.6825 82.2185 10.4936 81.7909 10.2811C81.3634 10.0685 81.0071 9.78511 80.722 9.40723C80.437 9.02937 80.2944 8.58066 80.2944 8.06109C80.2944 7.28174 80.5795 6.64408 81.1733 6.14814C81.7672 5.65218 82.5035 5.41602 83.4062 5.41602C84.475 5.41602 85.3777 5.74665 86.0902 6.3843L85.3539 7.73045C85.0926 7.49428 84.7838 7.30535 84.4276 7.16365C84.0712 7.02195 83.7149 6.9511 83.3586 6.9511C82.931 6.9511 82.5985 7.04557 82.3372 7.23451C82.0759 7.42344 81.9572 7.68321 81.9572 7.99023C81.9572 8.29726 82.0997 8.55704 82.3848 8.7932C82.6698 9.00575 83.0261 9.21831 83.4536 9.36001C83.8812 9.52532 84.285 9.71426 84.7125 9.90319C85.1401 10.0921 85.4964 10.3991 85.7815 10.777C86.0665 11.1549 86.209 11.6036 86.209 12.1468C86.209 12.9261 85.9477 13.5638 85.4014 14.0597C84.8551 14.5793 84.1187 14.8391 83.1686 14.8391C82.5747 14.8391 82.0285 14.721 81.4584 14.5085C80.9121 14.2959 80.4369 13.9889 80.0332 13.5874Z" fill="white"/>
<path d="M89.9382 14.6744V6.99903H86.9453V5.58203H94.5939V6.99903H91.601V14.6744H89.9382Z" fill="white"/>
<path d="M97.8236 14.6744V10.8722L94.7832 5.58203H96.6597L98.0849 8.25072L98.6313 9.45517H98.655C98.845 9.03007 99.0113 8.60497 99.2013 8.25072L100.627 5.58203H102.503L99.4626 10.8722V14.6744H97.8236Z" fill="white"/>
<path d="M106.399 14.6744V5.58203H109.511C110.937 5.58203 112.077 5.98351 112.908 6.78648C113.739 7.58945 114.167 8.69943 114.167 10.1164C114.167 11.5334 113.739 12.6434 112.908 13.4464C112.077 14.2493 110.937 14.6508 109.511 14.6508H106.399V14.6744ZM108.062 13.2575H109.416C110.366 13.2575 111.103 12.9977 111.649 12.4545C112.196 11.9113 112.457 11.132 112.457 10.1401C112.457 9.14815 112.196 8.39242 111.649 7.84923C111.103 7.30604 110.366 7.04626 109.44 7.04626H108.062V13.2575Z" fill="white"/>
<path d="M115.78 11.4154V5.58203H117.443V11.3917C117.443 12.0058 117.634 12.4781 117.989 12.8087C118.346 13.1394 118.844 13.3047 119.462 13.3047C120.079 13.3047 120.579 13.1394 120.935 12.8087C121.291 12.4781 121.481 12.0058 121.481 11.3917V5.58203H123.144V11.4154C123.144 12.4309 122.811 13.2575 122.122 13.8951C121.457 14.5327 120.555 14.8398 119.462 14.8398C118.346 14.8398 117.467 14.5327 116.778 13.8951C116.137 13.2575 115.78 12.4309 115.78 11.4154Z" fill="white"/>
<path d="M124.903 14.6744L125.64 5.58203H127.397L129.203 10.0692L129.655 11.3917H129.678C129.844 10.8722 129.987 10.4235 130.129 10.0692L131.934 5.58203H133.692L134.428 14.6744H132.766L132.386 9.59687C132.362 9.40794 132.362 9.219 132.362 8.98283C132.362 8.74667 132.362 8.55773 132.386 8.41604V8.20348H132.362C132.172 8.7939 132.006 9.26623 131.864 9.62048L130.391 13.1394H128.966L127.493 9.62048L126.994 8.20348H126.97C126.994 8.74666 126.994 9.219 126.946 9.62048L126.566 14.6981H124.903V14.6744Z" fill="white"/>
<path d="M136.329 14.6744V5.58203H139.584C140.438 5.58203 141.127 5.79458 141.626 6.19606C142.148 6.62116 142.41 7.18797 142.41 7.92008C142.41 8.34518 142.315 8.72305 142.125 9.07731C141.935 9.40793 141.65 9.69133 141.317 9.88027V9.90388C141.793 10.0456 142.172 10.3054 142.41 10.7069C142.671 11.1083 142.79 11.5571 142.79 12.0294C142.79 12.8796 142.481 13.5409 141.887 13.9896C141.293 14.4383 140.534 14.6508 139.631 14.6508H136.329V14.6744ZM137.992 9.31347H139.607C139.963 9.31347 140.224 9.19539 140.438 8.98283C140.628 8.77029 140.747 8.48688 140.747 8.15625C140.747 7.82562 140.652 7.54222 140.438 7.35329C140.248 7.14073 139.939 7.04626 139.584 7.04626H137.992V9.31347ZM137.992 13.2575H139.773C140.177 13.2575 140.509 13.1394 140.747 12.9032C140.985 12.667 141.104 12.3364 141.104 11.9585C141.104 11.5807 140.985 11.25 140.747 11.0139C140.509 10.7777 140.177 10.6596 139.773 10.6596H137.992V13.2575Z" fill="white"/>
<path d="M144.475 14.6744V5.58203H147.729C148.584 5.58203 149.273 5.79458 149.772 6.19606C150.295 6.62116 150.556 7.18797 150.556 7.92008C150.556 8.34518 150.461 8.72305 150.271 9.07731C150.081 9.40793 149.796 9.69133 149.463 9.88027V9.90388C149.938 10.0456 150.318 10.3054 150.556 10.7069C150.817 11.1083 150.935 11.5571 150.935 12.0294C150.935 12.8796 150.627 13.5409 150.033 13.9896C149.439 14.4383 148.679 14.6508 147.776 14.6508L144.475 14.6744ZM146.138 9.31347H147.753C148.109 9.31347 148.371 9.19539 148.584 8.98283C148.775 8.77029 148.893 8.48688 148.893 8.15625C148.893 7.82562 148.798 7.54222 148.584 7.35329C148.371 7.14073 148.086 7.04626 147.729 7.04626H146.138V9.31347ZM146.138 13.2575H147.919C148.323 13.2575 148.656 13.1394 148.893 12.9032C149.13 12.667 149.249 12.3364 149.249 11.9585C149.249 11.5807 149.13 11.25 148.893 11.0139C148.656 10.7777 148.323 10.6596 147.919 10.6596H146.138V13.2575Z" fill="white"/>
<path d="M152.624 14.6744V5.58203H158.087V6.99903H154.286V9.38431H157.375V10.8013H154.286V13.2338H158.3V14.6508L152.624 14.6744Z" fill="white"/>
<path d="M159.939 14.6744V5.58203H161.602V13.2575H165.545V14.6744H159.939Z" fill="white"/>
<path d="M166.828 14.6744V5.58203H168.491V13.2575H172.434V14.6744H166.828Z" fill="white"/>
<path d="M173.075 13.5874L173.978 12.3357C174.286 12.5955 174.643 12.8317 175.047 13.0206C175.45 13.2095 175.854 13.304 176.258 13.304C176.662 13.304 176.995 13.2095 177.232 13.0206C177.469 12.8317 177.588 12.5719 177.588 12.2649C177.588 11.9578 177.446 11.6744 177.161 11.4383C176.876 11.2021 176.519 11.0132 176.092 10.8479C175.664 10.6825 175.26 10.4936 174.833 10.2811C174.405 10.0685 174.049 9.78511 173.764 9.40723C173.479 9.02937 173.336 8.58066 173.336 8.06109C173.336 7.28174 173.621 6.64408 174.215 6.14814C174.809 5.65218 175.545 5.41602 176.448 5.41602C177.517 5.41602 178.42 5.74665 179.132 6.3843L178.396 7.73045C178.135 7.49428 177.826 7.30535 177.469 7.16365C177.113 7.02195 176.757 6.9511 176.4 6.9511C175.973 6.9511 175.641 7.04557 175.379 7.23451C175.118 7.42344 174.999 7.68321 174.999 7.99023C174.999 8.29726 175.141 8.55704 175.426 8.7932C175.711 9.00575 176.068 9.21831 176.496 9.36001C176.923 9.52532 177.327 9.71426 177.754 9.90319C178.182 10.0921 178.539 10.3991 178.823 10.777C179.108 11.1549 179.251 11.6036 179.251 12.1468C179.251 12.9261 178.99 13.5638 178.443 14.0597C177.897 14.5793 177.161 14.8391 176.211 14.8391C175.617 14.8391 175.071 14.721 174.5 14.5085C173.954 14.2959 173.479 13.9889 173.075 13.5874Z" fill="white"/>
<path d="M61.8379 30.0255L65.0445 20.9331H66.8023L70.009 30.0255H68.2987L67.5149 27.6874H64.3082L63.5243 30.0255H61.8379ZM64.712 26.3649H67.0874L66.2797 23.9324L65.9234 22.5154H65.8997C65.7572 23.1058 65.6384 23.5782 65.5434 23.9324L64.712 26.3649Z" fill="white"/>
<path d="M71.1963 30.0255V20.9331H72.859L76.327 26.176C76.422 26.3413 76.5407 26.5302 76.6595 26.7664C76.7783 27.0026 76.8733 27.1915 76.9683 27.3569L77.0871 27.593H77.1109C77.0396 27.0026 77.0159 26.5539 77.0159 26.176V20.9331H78.6549V30.0255H77.0159L73.5478 24.7826C73.4528 24.6173 73.3341 24.4283 73.2153 24.1922C73.0966 23.956 73.0016 23.7671 72.9065 23.6018L72.7877 23.3656H72.764C72.8353 23.956 72.859 24.4047 72.859 24.7826V30.0255H71.1963Z" fill="white"/>
<path d="M80.3438 25.4189C80.3438 24.0964 80.7951 23.01 81.674 22.1126C82.5529 21.2152 83.693 20.79 85.0707 20.79C86.4484 20.79 87.5648 21.2388 88.4674 22.1126C89.3462 23.01 89.7976 24.0964 89.7976 25.4189C89.7976 26.765 89.3462 27.8987 88.4674 28.8197C87.5885 29.7407 86.4484 30.1895 85.0707 30.1895C83.693 30.1895 82.5765 29.7407 81.674 28.8197C80.7951 27.8987 80.3438 26.765 80.3438 25.4189ZM82.0777 25.4189C82.0777 26.34 82.3628 27.1193 82.9329 27.7334C83.5029 28.3474 84.2155 28.6544 85.0944 28.6544C85.9495 28.6544 86.6859 28.3474 87.256 27.7334C87.8261 27.1193 88.1111 26.34 88.1111 25.4189C88.1111 24.5215 87.8261 23.7894 87.256 23.199C86.6859 22.6085 85.9733 22.3015 85.0944 22.3015C84.2155 22.3015 83.5029 22.6085 82.9329 23.199C82.3628 23.7894 82.0777 24.5451 82.0777 25.4189Z" fill="white"/>
<path d="M91.4834 30.0255V20.9331H93.1461L96.6141 26.176C96.7091 26.3413 96.8279 26.5302 96.9466 26.7664C97.0654 27.0026 97.1604 27.1915 97.2554 27.3569L97.3742 27.593H97.3979C97.3267 27.0026 97.3029 26.5539 97.3029 26.176V20.9331H98.9419V30.0255H97.3029L93.835 24.7826C93.74 24.6173 93.6212 24.4283 93.5024 24.1922C93.3837 23.956 93.2886 23.7671 93.1936 23.6018L93.0748 23.3656H93.0511C93.1224 23.956 93.1461 24.4047 93.1461 24.7826V30.0255H91.4834Z" fill="white"/>
<path d="M103.146 30.0255V26.2232L100.105 20.9331H101.982L103.407 23.6018L103.954 24.8062H103.977C104.167 24.3811 104.334 23.956 104.524 23.6018L105.949 20.9331H107.826L104.785 26.2232V30.0255H103.146Z" fill="white"/>
<path d="M108.417 30.0255L109.153 20.9331H110.911L112.716 25.4203L113.167 26.7428H113.192C113.358 26.2232 113.501 25.7745 113.643 25.4203L115.448 20.9331H117.206L117.942 30.0255H116.28L115.899 24.9479C115.876 24.759 115.876 24.57 115.876 24.3338C115.876 24.0977 115.876 23.9088 115.899 23.7671V23.5545C115.71 24.145 115.543 24.6173 115.401 24.9715L113.928 28.4904H112.479L111.007 24.9715L110.507 23.5545H110.484C110.507 24.0977 110.507 24.57 110.46 24.9715L110.08 30.0491H108.417V30.0255Z" fill="white"/>
<path d="M119.296 25.4189C119.296 24.0964 119.747 23.01 120.626 22.1126C121.505 21.2152 122.645 20.79 124.023 20.79C125.401 20.79 126.517 21.2388 127.42 22.1126C128.299 23.01 128.75 24.0964 128.75 25.4189C128.75 26.765 128.299 27.8987 127.42 28.8197C126.541 29.7407 125.401 30.1895 124.023 30.1895C122.645 30.1895 121.529 29.7407 120.626 28.8197C119.747 27.8987 119.296 26.765 119.296 25.4189ZM121.006 25.4189C121.006 26.34 121.291 27.1193 121.861 27.7334C122.432 28.3474 123.145 28.6544 124.023 28.6544C124.902 28.6544 125.615 28.3474 126.185 27.7334C126.755 27.1193 127.04 26.34 127.04 25.4189C127.04 24.5215 126.755 23.7894 126.185 23.199C125.615 22.6085 124.902 22.3015 124.023 22.3015C123.168 22.3015 122.432 22.6085 121.861 23.199C121.291 23.7894 121.006 24.5451 121.006 25.4189Z" fill="white"/>
<path d="M130.319 26.7664V20.9331H131.982V26.7428C131.982 27.3569 132.172 27.8291 132.528 28.1598C132.885 28.4904 133.384 28.6558 134.001 28.6558C134.619 28.6558 135.117 28.4904 135.474 28.1598C135.83 27.8291 136.02 27.3569 136.02 26.7428V20.9331H137.683V26.7664C137.683 27.7819 137.35 28.6085 136.661 29.2461C135.996 29.8838 135.094 30.1908 134.001 30.1908C132.885 30.1908 132.006 29.8838 131.317 29.2461C130.652 28.6085 130.319 27.7819 130.319 26.7664Z" fill="white"/>
<path d="M139.131 28.9385L140.033 27.6868C140.342 27.9465 140.698 28.1827 141.102 28.3717C141.506 28.5606 141.91 28.6551 142.313 28.6551C142.717 28.6551 143.049 28.5606 143.287 28.3717C143.525 28.1827 143.644 27.9229 143.644 27.616C143.644 27.3089 143.501 27.0255 143.216 26.7893C142.931 26.5532 142.575 26.3642 142.147 26.199C141.72 26.0336 141.316 25.8447 140.889 25.6321C140.461 25.4196 140.104 25.1362 139.819 24.7583C139.534 24.3805 139.392 23.9317 139.392 23.4121C139.392 22.6328 139.677 21.9951 140.27 21.4992C140.865 21.0033 141.601 20.7671 142.503 20.7671C143.572 20.7671 144.475 21.0977 145.188 21.7353L144.451 23.0815C144.19 22.8454 143.881 22.6564 143.525 22.5147C143.168 22.373 142.813 22.3022 142.456 22.3022C142.028 22.3022 141.696 22.3966 141.435 22.5856C141.174 22.7745 141.055 23.0343 141.055 23.3413C141.055 23.6483 141.197 23.9081 141.482 24.1443C141.767 24.3569 142.124 24.5694 142.551 24.7111C142.979 24.8764 143.383 25.0653 143.81 25.2543C144.237 25.4668 144.594 25.7502 144.879 26.1281C145.164 26.5059 145.307 26.9547 145.307 27.4979C145.307 28.2772 145.045 28.9149 144.499 29.4108C143.953 29.9304 143.216 30.1902 142.266 30.1902C141.672 30.1902 141.126 30.0721 140.555 29.8595C140.009 29.6469 139.534 29.3399 139.131 28.9385Z" fill="white"/>
<path d="M150.176 30.0255V20.9331H153.193C153.976 20.9331 154.546 21.004 154.926 21.1693C155.402 21.3582 155.781 21.6652 156.067 22.1139C156.352 22.539 156.47 23.0586 156.47 23.6726C156.47 24.2158 156.327 24.7354 156.067 25.1841C155.781 25.6328 155.425 25.9634 154.95 26.1523V26.176C155.021 26.2704 155.117 26.4358 155.235 26.6483L157.111 30.0255H155.235L153.43 26.6247H151.838V30.0255H150.176ZM151.838 25.2077H153.335C153.786 25.2077 154.143 25.066 154.38 24.8062C154.641 24.5464 154.76 24.1922 154.76 23.7435C154.76 23.1058 154.522 22.7043 154.047 22.4918C153.81 22.3973 153.478 22.3501 153.05 22.3501H151.838V25.2077Z" fill="white"/>
<path d="M158.326 26.7664V20.9331H159.989V26.7428C159.989 27.3569 160.179 27.8291 160.535 28.1598C160.892 28.4904 161.39 28.6558 162.008 28.6558C162.625 28.6558 163.124 28.4904 163.481 28.1598C163.837 27.8291 164.027 27.3569 164.027 26.7428V20.9331H165.69V26.7664C165.69 27.7819 165.357 28.6085 164.668 29.2461C164.003 29.8838 163.101 30.1908 162.008 30.1908C160.892 30.1908 160.012 29.8838 159.323 29.2461C158.659 28.6085 158.326 27.7819 158.326 26.7664Z" fill="white"/>
<path d="M167.802 30.0255V20.9331H169.465L172.933 26.176C173.028 26.3413 173.146 26.5302 173.265 26.7664C173.384 27.0026 173.479 27.1915 173.574 27.3569L173.692 27.593H173.717C173.645 27.0026 173.621 26.5539 173.621 26.176V20.9331H175.261V30.0255H173.621L170.154 24.7826C170.058 24.6173 169.939 24.4283 169.82 24.1922C169.702 23.956 169.607 23.7671 169.512 23.6018L169.393 23.3656H169.369C169.441 23.956 169.465 24.4047 169.465 24.7826V30.0255H167.802Z" fill="white"/>
<path d="M177.493 30.0255V20.9331H179.156L182.623 26.176C182.719 26.3413 182.838 26.5302 182.956 26.7664C183.075 27.0026 183.17 27.1915 183.265 27.3569L183.384 27.593H183.408C183.337 27.0026 183.312 26.5539 183.312 26.176V20.9331H184.951V30.0255H183.312L179.844 24.7826C179.75 24.6173 179.631 24.4283 179.512 24.1922C179.393 23.956 179.298 23.7671 179.204 23.6018L179.085 23.3656H179.061C179.132 23.956 179.156 24.4047 179.156 24.7826V30.0255H177.493Z" fill="white"/>
<path d="M187.185 30.0255V20.9331H188.848V30.0255H187.185Z" fill="white"/>
<path d="M191.056 30.0255V20.9331H192.718L196.186 26.176C196.282 26.3413 196.4 26.5302 196.518 26.7664C196.637 27.0026 196.733 27.1915 196.828 27.3569L196.946 27.593H196.97C196.899 27.0026 196.875 26.5539 196.875 26.176V20.9331H198.514V30.0255H196.875L193.407 24.7826C193.312 24.6173 193.193 24.4283 193.074 24.1922C192.956 23.956 192.861 23.7671 192.766 23.6018L192.647 23.3656H192.623C192.695 23.956 192.718 24.4047 192.718 24.7826V30.0255H191.056Z" fill="white"/>
<path d="M200.226 25.4901C200.226 24.1675 200.677 23.0576 201.579 22.1601C202.482 21.2627 203.598 20.814 204.952 20.814C206.33 20.814 207.446 21.1919 208.349 21.9712L207.518 23.1993C207.232 22.9395 206.877 22.7269 206.401 22.5616C205.95 22.3963 205.499 22.3254 205.071 22.3254C204.074 22.3254 203.313 22.6325 202.767 23.2229C202.221 23.8133 201.936 24.5691 201.936 25.4428C201.936 26.4111 202.221 27.1905 202.814 27.7809C203.409 28.3713 204.121 28.6783 205 28.6783C205.855 28.6783 206.639 28.3713 207.28 27.7337V26.6709H205.879V25.2539H208.777V30.0481H207.351V29.623L207.375 29.2452H207.351C207.043 29.5286 206.662 29.7647 206.188 29.9536C205.712 30.1426 205.214 30.2134 204.691 30.2134C203.456 30.2134 202.387 29.7647 201.508 28.8909C200.653 27.9935 200.226 26.8598 200.226 25.4901Z" fill="white"/>
<path d="M61.8379 40.8185C61.8379 39.496 62.2892 38.3859 63.168 37.4885C64.0469 36.5911 65.1871 36.166 66.541 36.166C67.9425 36.166 69.0589 36.5911 69.914 37.4177L69.1064 38.6457C68.7739 38.3623 68.37 38.1261 67.9187 37.9609C67.4674 37.772 67.0398 37.7011 66.5885 37.7011C65.6384 37.7011 64.8783 38.0081 64.332 38.5985C63.7856 39.1889 63.5243 39.9446 63.5243 40.8185C63.5243 41.7159 63.8094 42.4717 64.3557 43.1093C64.902 43.747 65.6621 44.054 66.6123 44.054C67.5862 44.054 68.465 43.6761 69.2727 42.8967L70.1516 44.0776C69.1776 45.0695 67.99 45.5418 66.5648 45.5418C65.1395 45.5418 63.9995 45.0931 63.1443 44.1957C62.2654 43.2982 61.8379 42.1883 61.8379 40.8185Z" fill="white"/>
<path d="M71.5771 45.3995V36.3071H73.2399V43.9825H77.1829V45.3995H71.5771Z" fill="white"/>
<path d="M78.1572 42.1404V36.3071H79.82V42.1168C79.82 42.7309 80.01 43.2032 80.3663 43.5338C80.7226 43.8645 81.2214 44.0298 81.839 44.0298C82.4566 44.0298 82.9554 43.8645 83.3117 43.5338C83.668 43.2032 83.858 42.7309 83.858 42.1168V36.3071H85.5208V42.1404C85.5208 43.1559 85.1882 43.9825 84.4994 44.6202C83.8343 45.2578 82.9316 45.5649 81.839 45.5649C80.7226 45.5649 79.8437 45.2578 79.1549 44.6202C78.4898 43.9589 78.1572 43.1559 78.1572 42.1404Z" fill="white"/>
<path d="M87.6348 45.3995V36.3071H90.889C91.7441 36.3071 92.4329 36.5197 92.9318 36.9211C93.4543 37.3462 93.7156 37.9131 93.7156 38.6451C93.7156 39.0703 93.6206 39.4481 93.4306 39.8023C93.2405 40.133 92.9555 40.4164 92.6229 40.6053V40.629C93.098 40.7707 93.478 41.0305 93.7156 41.4319C93.9769 41.8334 94.0957 42.2821 94.0957 42.7544C94.0957 43.6283 93.7869 44.266 93.1931 44.7146C92.5992 45.1634 91.8391 45.3759 90.9365 45.3759H87.6348V45.3995ZM89.2975 40.0149H90.9127C91.269 40.0149 91.5303 39.8968 91.7441 39.6843C91.9341 39.4718 92.0529 39.1884 92.0529 38.8577C92.0529 38.5271 91.9579 38.2436 91.7441 38.0548C91.5541 37.8422 91.2452 37.7477 90.889 37.7477H89.2975V40.0149ZM89.2975 43.9825H91.079C91.4828 43.9825 91.8154 43.8645 92.0529 43.6283C92.2904 43.3921 92.4092 43.0615 92.4092 42.6836C92.4092 42.3058 92.2904 41.9751 92.0529 41.7389C91.8154 41.5027 91.4828 41.3847 91.079 41.3847H89.2975V43.9825Z" fill="white"/>
</g>
<ellipse cx="24.7132" cy="25.375" rx="24.7132" ry="24.7148" fill="white"/>
<path d="M30.8956 13.0732C28.8583 11.1158 26.1294 10.1465 22.7091 10.1465H19.4756H15.3076V27.4084C15.4385 26.8305 15.6254 26.1967 15.9431 25.4883C16.5038 24.2207 17.1767 23.4005 17.3823 23.1582C17.5879 22.9158 17.9243 22.5244 18.4289 22.077V12.8495H19.4382H22.4848C25.008 12.8495 27.0079 13.5765 28.5031 15.0305C29.9984 16.4845 30.7461 18.5351 30.7461 21.2009C30.7461 23.9039 29.9984 25.973 28.5219 27.4271C27.0453 28.8811 25.0267 29.6081 22.5035 29.6081H18.8775C18.7654 30.6893 18.8214 31.6214 18.9336 32.3111H22.7278C26.1481 32.3111 28.877 31.3231 30.9143 29.3658C32.9515 27.4084 33.9608 24.6868 33.9608 21.2009C33.9421 17.7335 32.9142 15.0305 30.8956 13.0732Z" fill="#111111"/>
<path d="M31.8307 28.8436C31.4755 29.2724 31.1391 29.6266 30.8214 29.9061V39.0964H26.7655C24.2236 39.0964 22.2237 38.3694 20.7471 36.9153C19.5696 35.7596 18.8781 34.231 18.6351 32.2922C18.579 31.7889 18.5417 31.2483 18.5417 30.6891C18.5417 28.0234 19.2893 25.9728 20.7845 24.5188C22.2798 23.0648 24.2796 22.3377 26.8029 22.3377C28.0365 22.3377 29.1766 22.3377 30.4102 22.3377C30.4102 22.3004 30.4102 22.2631 30.4289 22.2259C30.5223 21.182 30.4663 20.3058 30.3728 19.6348H26.5973C23.1769 19.6348 20.4481 20.6041 18.4108 22.5614C16.3736 24.5188 15.3643 27.2218 15.3643 30.6705C15.3643 34.1378 16.3736 36.8594 18.4108 38.8354C20.4481 40.8114 23.1769 41.7807 26.5973 41.7807H33.9988C34.0175 36.0019 34.0175 30.223 34.0361 24.4629C33.5128 26.6998 32.2792 28.303 31.8307 28.8436Z" fill="#111111"/>
<defs>
<clipPath id="clip0_13_50">
<rect width="147.274" height="42.9389" fill="white" transform="translate(61.6855 4.15381)"/>
</clipPath>
</defs>
</svg>
