<svg width="136" height="41" viewBox="0 0 136 41" fill="none" xmlns="http://www.w3.org/2000/svg">
<g clip-path="url(#clip0_1_2375)">
<path d="M59.5571 2.84375V10.4413H61.0899V4.4959L63.3632 7.18551L65.6361 4.49628V10.4413H67.1689V2.84375H67.0326H65.6361H65.4812L63.3632 5.35021L61.2451 2.84375H61.0899H59.5571Z" fill="white"/>
<path fill-rule="evenodd" clip-rule="evenodd" d="M74.588 6.646C74.588 7.3455 74.3132 8.01635 73.824 8.51097C73.3349 9.00559 72.6714 9.28347 71.9797 9.28347C71.6371 9.28347 71.2979 9.21525 70.9815 9.0827C70.665 8.95016 70.3775 8.75589 70.1353 8.51097C69.8931 8.26606 69.7009 7.97531 69.5699 7.65532C69.4388 7.33532 69.3713 6.99236 69.3713 6.646C69.3713 6.29964 69.4388 5.95668 69.5699 5.63668C69.7009 5.31669 69.8931 5.02594 70.1353 4.78103C70.3775 4.53611 70.665 4.34184 70.9815 4.20929C71.2979 4.07675 71.6371 4.00853 71.9797 4.00853C72.6714 4.00853 73.3349 4.28641 73.824 4.78103C74.3132 5.27565 74.588 5.9465 74.588 6.646ZM75.9022 6.646C75.9022 7.69793 75.4889 8.70678 74.7533 9.45061C74.0177 10.1944 73.02 10.6123 71.9797 10.6123C71.4645 10.6123 70.9545 10.5097 70.4786 10.3104C70.0027 10.1111 69.5702 9.81892 69.206 9.45061C68.8418 9.0823 68.5528 8.64506 68.3557 8.16385C68.1586 7.68263 68.0571 7.16686 68.0571 6.646C68.0571 6.12513 68.1586 5.60937 68.3557 5.12815C68.5528 4.64694 68.8418 4.20969 69.206 3.84139C69.5703 3.47308 70.0027 3.18093 70.4786 2.9816C70.9545 2.78228 71.4645 2.67969 71.9797 2.67969C73.02 2.67969 74.0177 3.09757 74.7533 3.84139C75.4889 4.58522 75.9022 5.59407 75.9022 6.646Z" fill="white"/>
<path fill-rule="evenodd" clip-rule="evenodd" d="M80.6007 2.67969C78.4344 2.67969 76.6782 4.45546 76.6782 6.64599C76.6782 8.83652 78.4344 10.6123 80.6007 10.6123C81.3895 10.6124 82.1417 10.5551 82.8116 10.246V8.86704C82.2502 9.26596 81.5 9.2831 80.6007 9.28371C79.1602 9.2836 77.9924 8.10265 77.9926 6.64599C77.9924 5.18934 79.1602 4.00838 80.6007 4.00828C81.5 4.00888 82.2502 4.02603 82.8116 4.42494V3.04598C82.1417 2.73689 81.3895 2.67963 80.6007 2.67969Z" fill="white"/>
<path fill-rule="evenodd" clip-rule="evenodd" d="M96.3116 6.646C96.3116 7.3455 96.0368 8.01635 95.5477 8.51097C95.0585 9.00559 94.3951 9.28347 93.7033 9.28347C93.3608 9.28347 93.0216 9.21525 92.7051 9.0827C92.3887 8.95016 92.1011 8.75589 91.8589 8.51097C91.6167 8.26606 91.4246 7.97531 91.2935 7.65532C91.1624 7.33532 91.0949 6.99236 91.0949 6.646C91.0949 6.29964 91.1624 5.95668 91.2935 5.63668C91.4246 5.31669 91.6167 5.02594 91.8589 4.78103C92.1011 4.53611 92.3887 4.34184 92.7051 4.20929C93.0216 4.07675 93.3608 4.00853 93.7033 4.00853C94.3951 4.00853 95.0585 4.28641 95.5477 4.78103C96.0368 5.27565 96.3116 5.9465 96.3116 6.646ZM97.6258 6.646C97.6258 7.69793 97.2125 8.70678 96.4769 9.45061C95.7413 10.1944 94.7436 10.6123 93.7033 10.6123C93.1882 10.6123 92.6781 10.5097 92.2022 10.3104C91.7263 10.1111 91.2939 9.81892 90.9296 9.45061C90.5654 9.0823 90.2765 8.64506 90.0793 8.16385C89.8822 7.68263 89.7808 7.16686 89.7808 6.646C89.7808 6.12513 89.8822 5.60937 90.0793 5.12815C90.2765 4.64694 90.5654 4.20969 90.9296 3.84139C91.2939 3.47308 91.7263 3.18093 92.2022 2.9816C92.6781 2.78228 93.1882 2.67969 93.7033 2.67969C94.7436 2.67969 95.7413 3.09757 96.4769 3.84139C97.2125 4.58522 97.6258 5.59407 97.6258 6.646Z" fill="white"/>
<path d="M103.787 8.27981C103.787 8.96826 103.559 9.48716 103.097 9.86691C102.638 10.2472 102.009 10.4414 101.197 10.4414H98.5557V2.84379L100.736 2.84375C101.764 2.84375 102.5 3.00404 102.939 3.30132C103.382 3.59564 103.601 4.05412 103.601 4.71752C103.601 5.16851 103.502 5.52869 103.275 5.81805C103.049 6.10741 102.803 6.25734 102.475 6.42698C102.868 6.64517 103.253 6.86743 103.45 7.15261C103.647 7.43779 103.787 7.79222 103.787 8.27981ZM99.979 3.99933V5.93136H100.078H100.911C101.343 5.93136 101.666 5.86363 101.882 5.70374C102.101 5.54361 102.208 5.27555 102.208 4.93621C102.208 4.61502 102.086 4.35845 101.851 4.21219C101.619 4.06309 101.279 3.99933 100.826 3.99933H99.979ZM99.979 7.04459V7.14402V9.27493H101.021C101.462 9.27493 101.803 9.18635 102.033 8.98982C102.262 8.79369 102.373 8.4922 102.373 8.11431C102.373 7.76853 102.25 7.48751 102.008 7.30677C101.765 7.12604 101.418 7.04459 100.971 7.04459H99.979Z" fill="white"/>
<path fill-rule="evenodd" clip-rule="evenodd" d="M108.328 2.67969C106.162 2.67969 104.406 4.45546 104.406 6.64599C104.406 8.83652 106.162 10.6123 108.328 10.6123C109.117 10.6124 109.869 10.5551 110.539 10.246V8.86704C109.978 9.26596 109.227 9.2831 108.328 9.28371C106.888 9.2836 105.72 8.10265 105.72 6.64599C105.72 5.18934 106.888 4.00838 108.328 4.00828C109.227 4.00888 109.978 4.02603 110.539 4.42494V3.04598C109.869 2.73689 109.117 2.67963 108.328 2.67969Z" fill="white"/>
<path d="M111.348 2.84375L112.864 2.84387V10.4416L111.348 10.4415V2.84375ZM116.031 2.84404L112.864 6.43756L116.205 10.4416H117.894L114.552 6.43756L117.72 2.84404H116.031Z" fill="white"/>
<path d="M118.515 2.84327V10.4412H118.786H120.047H120.11L123.715 4.8125V10.4412H125.248V2.84365H124.976H123.715H123.652L120.047 8.47241V2.84365L118.515 2.84327Z" fill="white"/>
<path d="M126.333 2.84327V10.4412H126.604H127.865H127.928L131.533 4.8125V10.4412H133.066V2.84365H132.794H131.533H131.47L127.865 8.47241V2.84365L126.333 2.84327Z" fill="white"/>
<path d="M128.95 1.27295L128.132 1.42786C128.207 1.82568 128.418 2.18485 128.728 2.44336C129.039 2.70188 129.43 2.84351 129.834 2.84383C130.237 2.8436 130.628 2.702 130.939 2.44348C131.25 2.18496 131.461 1.82574 131.536 1.42786L130.717 1.27295C130.678 1.47936 130.568 1.6657 130.407 1.7998C130.246 1.9339 130.043 2.00734 129.834 2.00745C129.624 2.00734 129.421 1.9339 129.26 1.7998C129.099 1.6657 128.989 1.47936 128.95 1.27295Z" fill="white"/>
<path d="M83.6299 2.84375L85.1453 2.84387V10.4416L83.6299 10.4415V2.84375ZM88.3125 2.84404L85.1453 6.43756L88.4865 10.4416H90.1754L86.8342 6.43756L90.0018 2.84404H88.3125Z" fill="white"/>
<path d="M59.5571 12.2549V19.8525H61.0899V13.907L63.3632 16.5966L65.6361 13.9074V19.8525H67.1689V12.2549H67.0326H65.6361H65.4812L63.3632 14.7613L61.2451 12.2549H61.0899H59.5571Z" fill="white"/>
<path d="M70.6422 12.2549L67.6387 19.8525H69.1098L69.7963 17.9794H73.1442L73.8307 19.8525H75.3018L72.2983 12.2549H71.8941H70.6422ZM71.4702 13.4118L72.7819 16.9912H70.1585L71.4702 13.4118Z" fill="white"/>
<path d="M78.2669 12.2549C79.1869 12.2549 79.8649 12.4576 80.3179 12.8417V12.8422C80.7731 13.2221 81.0027 13.7823 81.0027 14.5692C81.0027 15.3877 80.7578 15.9852 80.2686 16.4055C79.7823 16.8263 79.0789 17.0453 78.139 17.0453H77.2884V19.8525H75.9136V12.2549L78.2669 12.2549ZM77.289 15.9691H77.4339H77.9755C78.5002 15.9691 78.9119 15.8664 79.2002 15.6351V15.6345C79.4861 15.4009 79.6308 15.0495 79.6309 14.6285C79.6309 14.2097 79.513 13.8695 79.2636 13.649C79.0162 13.4271 78.6499 13.3311 78.1809 13.3311L77.2884 13.3311L77.289 15.9691Z" fill="white"/>
<path d="M83.4029 12.2549L80.3994 19.8525H81.8705L82.557 17.9794H85.9049L86.5914 19.8525H88.0625L85.059 12.2549H84.6549H83.4029ZM84.231 13.4118L85.5427 16.9912H82.9193L84.231 13.4118Z" fill="white"/>
<path d="M91.3184 12.2549V12.8974C90.5229 12.9356 89.7087 13.1216 89.0718 13.601C88.3338 14.1565 87.9042 15.0805 87.891 16.0056C87.8843 16.4713 87.9775 16.9401 88.1775 17.3605C88.3775 17.7809 88.6855 18.1515 89.0718 18.4102C89.7216 18.8454 90.5372 18.9401 91.3184 18.9585V19.8525H92.6704V18.9585C93.4517 18.9401 94.2672 18.8454 94.9171 18.4102C95.3033 18.1515 95.6113 17.7809 95.8113 17.3605C96.0113 16.9401 96.1045 16.4713 96.0979 16.0056C96.0846 15.0805 95.655 14.1565 94.9171 13.601C94.2801 13.1216 93.466 12.9356 92.6704 12.8974V12.2549H91.9942H91.3184ZM91.3184 13.7952V18.1469C90.8398 18.1069 90.3492 17.9708 89.996 17.6444C89.7767 17.4417 89.6216 17.1747 89.5288 16.8904C89.436 16.6062 89.4033 16.3047 89.4062 16.0056C89.4093 15.7077 89.4473 15.4084 89.5409 15.1257C89.6346 14.8431 89.7855 14.5773 89.996 14.3672C90.343 14.0211 90.8317 13.8468 91.3184 13.7952ZM92.6704 13.7952C93.1572 13.8468 93.6458 14.0211 93.9928 14.3672C94.2034 14.5773 94.3542 14.8431 94.4479 15.1257C94.5415 15.4084 94.5794 15.7077 94.5822 16.0056C94.5853 16.3047 94.5528 16.6062 94.4601 16.8904C94.3673 17.1747 94.2121 17.4417 93.9928 17.6444C93.6396 17.9708 93.1491 18.1069 92.6704 18.1469V13.7952Z" fill="white"/>
<path fill-rule="evenodd" clip-rule="evenodd" d="M103.337 16.0537C103.337 16.7532 103.062 17.4241 102.573 17.9187C102.084 18.4133 101.42 18.6912 100.729 18.6912C100.386 18.6912 100.047 18.623 99.7305 18.4904C99.414 18.3579 99.1265 18.1636 98.8843 17.9187C98.6421 17.6738 98.45 17.383 98.3189 17.063C98.1878 16.743 98.1203 16.4001 98.1203 16.0537C98.1203 15.7074 98.1878 15.3644 98.3189 15.0444C98.45 14.7244 98.6421 14.4337 98.8843 14.1887C99.1265 13.9438 99.414 13.7496 99.7305 13.617C100.047 13.4845 100.386 13.4162 100.729 13.4162C101.42 13.4162 102.084 13.6941 102.573 14.1887C103.062 14.6834 103.337 15.3542 103.337 16.0537ZM104.651 16.0537C104.651 17.1056 104.238 18.1145 103.502 18.8583C102.767 19.6021 101.769 20.02 100.729 20.02C100.214 20.02 99.7035 19.9174 99.2276 19.7181C98.7517 19.5188 98.3193 19.2266 97.955 18.8583C97.5908 18.49 97.3019 18.0528 97.1047 17.5716C96.9076 17.0903 96.8062 16.5746 96.8062 16.0537C96.8062 15.5329 96.9076 15.0171 97.1047 14.5359C97.3019 14.0547 97.5908 13.6174 97.955 13.2491C98.3193 12.8808 98.7517 12.5886 99.2276 12.3893C99.7035 12.19 100.214 12.0874 100.729 12.0874C101.769 12.0874 102.767 12.5053 103.502 13.2491C104.238 13.9929 104.651 15.0018 104.651 16.0537Z" fill="white"/>
<path d="M105.479 12.2544V19.8524H106.994V16.4996H110.679V19.8524H112.195V12.2548L110.679 12.2544V15.3031H106.994V12.2548L105.479 12.2544Z" fill="white"/>
<path fill-rule="evenodd" clip-rule="evenodd" d="M8.3871 2.70165C5.57156 4.12032 2.68941 6.79868 1.38658 9.67696C-0.00306973 12.7472 -0.228702 16.3302 0.764854 19.5512C1.72801 22.6738 3.76042 25.3659 6.07604 27.6663C8.17673 29.7532 10.5321 31.5696 12.9903 33.2178C15.1457 34.663 17.3835 35.9824 19.6671 37.2139C21.9706 38.4561 24.3217 39.6093 26.7135 40.6707C27.3674 38.1313 27.9241 35.567 28.3818 32.9848C28.8354 30.425 29.1918 27.8467 29.3988 25.2551C29.6349 22.2994 29.6757 19.3202 29.3468 16.3735C28.9843 13.1253 28.1396 9.85676 26.295 7.162C24.3921 4.38225 21.4497 2.33664 18.1862 1.52447C15.1267 0.763146 11.2436 1.3678 8.38719 2.70237L8.3871 2.70165ZM11.8963 9.97205C12.781 9.54269 13.7165 9.33936 14.6376 9.33936C16.9789 9.33936 19.2276 10.6529 20.3159 12.9078C20.7441 13.7949 20.9469 14.7329 20.9469 15.6565C20.9469 18.0041 19.6369 20.2589 17.3881 21.3501C16.5034 21.7795 15.5679 21.9828 14.6468 21.9828C12.3055 21.9828 10.0568 20.6693 8.9685 18.4144C8.54031 17.5273 8.33752 16.5893 8.33752 15.6657C8.33752 13.3181 9.64755 11.0633 11.8963 9.97205Z" fill="white"/>
<path d="M45.1815 2.42074L45.1815 2.42061L45.173 2.41663C42.2651 1.05882 38.3079 0.4371 35.1648 1.21922L35.2406 1.5236L35.1648 1.21922C31.8264 2.04995 28.8188 4.14105 26.8725 6.98429C24.9871 9.7385 24.133 13.0644 23.7675 16.3386C23.4358 19.311 23.4774 22.3112 23.7146 25.2801C23.9225 27.8837 24.2804 30.4722 24.7354 33.0397C25.1945 35.6298 25.7529 38.202 26.4088 40.7491L26.5014 41.1089L26.841 40.9582C29.2402 39.8936 31.5985 38.7368 33.9092 37.4908C36.1997 36.2555 38.4464 34.931 40.6118 33.4791C43.0811 31.8235 45.4536 29.9947 47.5726 27.8896C49.9069 25.5706 51.9783 22.8354 52.9627 19.644C53.9789 16.3496 53.7483 12.6875 52.327 9.54731C50.9889 6.59092 48.0477 3.86499 45.1815 2.42074ZM41.3934 10.2551C43.5293 11.2916 44.7749 13.4337 44.7749 15.6657C44.7749 16.543 44.5823 17.4342 44.1752 18.2777C42.7341 21.2634 39.1527 22.5116 36.1762 21.0671C34.0402 20.0306 32.7947 17.8886 32.7947 15.6566C32.7947 14.7792 32.9872 13.8881 33.3944 13.0445C34.4284 10.9022 36.5646 9.65396 38.7893 9.65396C39.6639 9.65396 40.5523 9.84695 41.3934 10.2551Z" fill="white" stroke="#1E1E1E" stroke-width="0.629159"/>
<path d="M89.523 39.3786H88.6305L89.6859 32.8398H87.1069L87.24 32.0327H93.1558L93.0227 32.8398H90.5784L89.523 39.3786Z" fill="white"/>
<path d="M94.4982 35.2115H98.5227L99.0353 32.0327H99.9278L98.7394 39.3786H97.8469L98.3896 36.0186H94.3761L93.8334 39.3786H92.9409L94.1293 32.0327H95.0218L94.4982 35.2115Z" fill="white"/>
<path d="M114.531 38.0554L115.435 32.0327H116.327L115.139 39.3786H114.306L110.831 33.3394H110.809L109.912 39.3786H109.019L110.207 32.0327H111.029L114.509 38.0554H114.531Z" fill="white"/>
<path d="M70.9542 32.0347L66.7271 39.3803H67.7505L68.7737 37.633H72.3322L72.8001 39.3803H73.8262L71.8061 32.0347H70.9542ZM71.2021 33.3409H71.2266L71.9922 36.3606L72.1165 36.8254H69.2453L69.515 36.3606L71.2021 33.3409Z" fill="white"/>
<path d="M75.8819 32.0347L74.6934 39.3803H75.5858L76.0773 36.3386H76.7524C76.7943 36.3386 76.8388 36.3306 76.881 36.3284L78.6388 39.3803H79.6353L77.7717 36.1969C78.1341 36.1246 78.4528 36.0264 78.7141 35.8941C79.003 35.744 79.2376 35.5649 79.4179 35.3563C79.5983 35.1477 79.7269 34.9153 79.8028 34.6591C79.8825 34.4029 79.9158 34.1297 79.9027 33.8405C79.8844 33.4379 79.7513 33.0886 79.5042 32.7921C79.2606 32.492 78.897 32.2781 78.413 32.15C78.2651 32.1098 78.0938 32.0801 77.8995 32.0618C77.7052 32.0435 77.5021 32.0347 77.2904 32.0347H75.8819ZM76.6416 32.8413H77.3818C77.7103 32.8413 77.9674 32.8687 78.1524 32.9236C78.4227 33.0078 78.6236 33.1358 78.7556 33.3079C78.891 33.4762 78.9638 33.6701 78.9738 33.8897C78.9803 34.0325 78.9665 34.1791 78.9332 34.3291C78.9034 34.4755 78.8405 34.6184 78.7446 34.7575C78.6522 34.8929 78.5234 35.0195 78.3571 35.1366C78.1944 35.2501 77.9832 35.3411 77.7235 35.4106C77.5721 35.4509 77.4 35.4819 77.2075 35.5039C77.0185 35.5222 76.7927 35.5319 76.5299 35.5319H76.2101L76.6416 32.8413Z" fill="white"/>
<path d="M66.102 32.0331L63.2622 34.8348L61.2996 32.0331H60.3877L59.2363 39.3804H60.1288L61.0906 33.2452L63.1403 36.1733L66.0216 33.3309L65.0733 39.3796H65.9658L67.1179 32.0322L66.102 32.0331Z" fill="white"/>
<path d="M66.1684 22.1063L63.3286 24.908L61.366 22.1063H60.4541L59.3027 29.4536H60.1952L61.157 23.3184L63.2068 26.2465L66.088 23.4041L65.1397 29.4528H66.0322L67.1844 22.1055L66.1684 22.1063Z" fill="white"/>
<path fill-rule="evenodd" clip-rule="evenodd" d="M107.43 35.7056C107.371 36.082 107.239 36.4547 107.04 36.8024C106.842 37.1501 106.582 37.466 106.275 37.7321C105.968 37.9982 105.62 38.2093 105.251 38.3534C104.881 38.4974 104.498 38.5715 104.123 38.5715C103.365 38.5715 102.685 38.2696 102.233 37.7321C101.781 37.1947 101.594 36.4657 101.714 35.7056C101.833 34.9456 102.248 34.2166 102.868 33.6792C103.489 33.1417 104.263 32.8398 105.021 32.8398C105.779 32.8398 106.459 33.1417 106.91 33.6792C107.362 34.2166 107.549 34.9456 107.43 35.7056ZM108.235 35.7056C108.082 36.6798 107.55 37.614 106.755 38.3028C105.96 38.9916 104.968 39.3786 103.996 39.3786C103.515 39.3786 103.054 39.2836 102.638 39.099C102.223 38.9144 101.861 38.6439 101.575 38.3028C101.288 37.9617 101.082 37.5568 100.967 37.1112C100.853 36.6656 100.833 36.188 100.909 35.7056C101.061 34.7315 101.594 33.7973 102.389 33.1085C103.184 32.4197 104.176 32.0327 105.147 32.0327C105.628 32.0327 106.09 32.1277 106.505 32.3123C106.921 32.4969 107.282 32.7674 107.569 33.1085C107.856 33.4496 108.062 33.8545 108.176 34.3001C108.29 34.7457 108.31 35.2233 108.235 35.7056Z" fill="white" stroke="white" stroke-width="0.142615" stroke-linecap="square"/>
<path fill-rule="evenodd" clip-rule="evenodd" d="M74.5285 25.7794C74.4696 26.1557 74.3372 26.5284 74.1391 26.8761C73.941 27.2238 73.6809 27.5397 73.3738 27.8059C73.0667 28.072 72.7185 28.2831 72.3492 28.4271C71.9798 28.5711 71.5966 28.6452 71.2212 28.6452C70.4632 28.6452 69.7835 28.3433 69.3318 27.8058C68.88 27.2684 68.6931 26.5394 68.8122 25.7794C68.9314 25.0193 69.3467 24.2904 69.967 23.7529C70.5872 23.2154 71.3615 22.9135 72.1195 22.9135C72.8776 22.9135 73.5572 23.2154 74.009 23.7529C74.4608 24.2904 74.6477 25.0193 74.5285 25.7794ZM75.3334 25.7794C75.1807 26.7535 74.6484 27.6877 73.8535 28.3765C73.0586 29.0653 72.0662 29.4523 71.0947 29.4523C70.6137 29.4523 70.1523 29.3573 69.7368 29.1727C69.3213 28.9881 68.9599 28.7176 68.6732 28.3765C68.3865 28.0355 68.1801 27.6306 68.0659 27.1849C67.9517 26.7393 67.9318 26.2617 68.0074 25.7794C68.16 24.8053 68.6924 23.871 69.4873 23.1822C70.2822 22.4934 71.2745 22.1064 72.246 22.1064C72.7271 22.1064 73.1885 22.2014 73.604 22.386C74.0195 22.5706 74.3809 22.8412 74.6676 23.1822C74.9543 23.5233 75.1606 23.9282 75.2749 24.3738C75.3891 24.8194 75.409 25.297 75.3334 25.7794Z" fill="white" stroke="white" stroke-width="0.142615" stroke-linecap="square"/>
<path fill-rule="evenodd" clip-rule="evenodd" d="M93.7868 25.7794C93.7278 26.1557 93.5955 26.5284 93.3974 26.8761C93.1993 27.2238 92.9392 27.5397 92.6321 27.8059C92.325 28.072 91.9768 28.2831 91.6075 28.4271C91.2382 28.5711 90.8549 28.6452 90.4795 28.6452C89.7215 28.6452 89.0418 28.3433 88.5901 27.8058C88.1383 27.2684 87.9514 26.5394 88.0705 25.7794C88.1897 25.0193 88.605 24.2904 89.2253 23.7529C89.8455 23.2154 90.6198 22.9135 91.3778 22.9135C92.1359 22.9135 92.8155 23.2154 93.2673 23.7529C93.7191 24.2904 93.906 25.0193 93.7868 25.7794ZM94.5917 25.7794C94.439 26.7535 93.9067 27.6877 93.1118 28.3765C92.3169 29.0653 91.3245 29.4523 90.353 29.4523C89.872 29.4523 89.4106 29.3573 88.9951 29.1727C88.5796 28.9881 88.2182 28.7176 87.9315 28.3765C87.6448 28.0355 87.4384 27.6306 87.3242 27.1849C87.21 26.7393 87.1901 26.2617 87.2657 25.7794C87.4183 24.8053 87.9507 23.871 88.7456 23.1822C89.5405 22.4934 90.5328 22.1064 91.5043 22.1064C91.9854 22.1064 92.4468 22.2014 92.8623 22.386C93.2778 22.5706 93.6392 22.8412 93.9259 23.1822C94.2126 23.5233 94.4189 23.9282 94.5332 24.3738C94.6474 24.8194 94.6673 25.297 94.5917 25.7794Z" fill="white" stroke="white" stroke-width="0.142615" stroke-linecap="square"/>
<path d="M100.817 25.5158C100.749 24.8351 100.706 24.3263 100.688 23.9896C100.673 23.6419 100.665 23.4534 100.664 23.4241H100.631C100.401 24.017 100.146 24.6374 99.8662 25.2853L97.9942 29.4523H96.9907L95.3447 22.1064H96.4138L97.2497 26.1362C97.4708 27.2269 97.5957 27.915 97.6243 28.2005H97.6506C97.8018 27.765 98.0758 27.0952 98.4726 26.1911L100.257 22.1064H101.379L101.841 26.268C101.915 26.9744 101.974 27.6186 102.019 28.2005H102.045C102.165 27.9114 102.299 27.6094 102.448 27.2947C102.597 26.9799 102.791 26.6029 103.029 26.1637L105.308 22.1064H106.488L102.251 29.4523H101.247L100.817 25.5158Z" fill="white"/>
<path d="M80.7995 23.177C80.0136 22.8392 79.1245 22.6247 78.2725 22.803C77.7569 22.9092 77.1804 23.275 77.1326 23.8348C77.0608 24.2554 77.4206 24.6415 77.8028 24.8337C78.543 25.2325 78.9311 25.2305 79.595 25.7836C80.2162 26.3008 80.3078 27.2346 80.0467 27.9596C79.765 28.7489 78.9772 29.2251 78.1875 29.3744C77.288 29.5526 76.7848 29.5638 75.9218 29.2598C75.7903 29.2072 75.6601 29.1477 75.5425 29.0679L75.6763 28.2773C76.5508 28.7586 77.1724 28.8019 78.138 28.5471C78.6591 28.4164 79.1529 28.0188 79.2253 27.459C79.3159 27.0139 79.1543 26.5142 78.7525 26.2744C78.0112 25.8429 77.6049 25.8658 76.92 25.318C76.4901 24.9929 76.1558 24.489 76.202 23.9629C76.211 23.1981 76.7606 22.4824 77.4706 22.1949C78.346 21.825 79.3437 21.9028 80.2439 22.1338C80.4761 22.196 80.7056 22.2697 80.9268 22.3644L80.7995 23.177Z" fill="white"/>
<path d="M85.2802 22.738C84.9308 22.738 84.607 22.7892 84.3085 22.8917C84.0101 22.9942 83.7405 23.1369 83.4997 23.3199C83.2626 23.4993 83.0521 23.7134 82.8681 23.9623C82.6879 24.2075 82.5395 24.4765 82.423 24.7693C82.3062 25.0585 82.221 25.3641 82.1673 25.6862C82.1136 26.0083 82.0945 26.3322 82.1101 26.6579C82.1309 27.0935 82.2151 27.4485 82.3625 27.723C82.51 27.9976 82.6949 28.2117 82.9173 28.3654C83.1396 28.5191 83.3885 28.6253 83.6639 28.6838C83.9391 28.7387 84.2149 28.7662 84.4913 28.7662C84.8023 28.7662 85.1005 28.7387 85.3858 28.6838C85.6711 28.6289 85.9291 28.5649 86.1598 28.4917L86.0204 29.3097C85.7825 29.3939 85.5187 29.4561 85.2288 29.4964C84.943 29.5403 84.6561 29.5622 84.3681 29.5622C83.9343 29.5622 83.5247 29.5073 83.1394 29.3975C82.7579 29.2877 82.4215 29.1175 82.1302 28.887C81.8428 28.6564 81.6098 28.3617 81.4315 28.003C81.2569 27.6443 81.1577 27.2161 81.1339 26.7183C81.1164 26.3523 81.1371 25.9808 81.1959 25.6038C81.2584 25.2232 81.3618 24.8572 81.5063 24.5058C81.6505 24.1508 81.8362 23.8177 82.0632 23.5066C82.2902 23.1955 82.5614 22.9246 82.8767 22.694C83.1918 22.4598 83.5517 22.2768 83.9562 22.145C84.3643 22.0096 84.8161 21.9419 85.3113 21.9419C85.6377 21.9419 85.9423 21.9693 86.2252 22.0242C86.5079 22.0755 86.7527 22.1377 86.9597 22.2109L86.825 23.007C86.6065 22.9338 86.3751 22.8716 86.1307 22.8203C85.8862 22.7654 85.6027 22.738 85.2802 22.738Z" fill="white"/>
<path d="M84.3512 32.0327L80.124 39.3783H81.1475L82.1707 37.631H85.7292L86.197 39.3783H87.2231L85.203 32.0327H84.3512ZM84.599 33.339H84.6236L85.3891 36.3587L85.5135 36.8235H82.6423L82.912 36.3587L84.599 33.339Z" fill="white"/>
</g>
<defs>
<clipPath id="clip0_1_2375">
<rect width="136" height="39.9548" fill="white" transform="translate(0 0.774902)"/>
</clipPath>
</defs>
</svg>
