<svg width="161" height="51" viewBox="0 0 161 51" fill="none" xmlns="http://www.w3.org/2000/svg">
<g clip-path="url(#clip0_13_8)">
<path d="M70.4541 4.8208V13.7241H72.2503V6.75689L74.9143 9.90875L77.5778 6.75734V13.7241H79.374V4.8208H79.2144H77.5778H77.3963L74.9143 7.75803L72.4322 4.8208H72.2503H70.4541Z" fill="white"/>
<path fill-rule="evenodd" clip-rule="evenodd" d="M88.0683 9.27541C88.0683 10.0951 87.7463 10.8813 87.1731 11.4609C86.5998 12.0405 85.8224 12.3662 85.0117 12.3662C84.6103 12.3662 84.2128 12.2862 83.842 12.1309C83.4711 11.9756 83.1342 11.7479 82.8503 11.4609C82.5665 11.1739 82.3414 10.8332 82.1877 10.4582C82.0341 10.0832 81.9551 9.6813 81.9551 9.27541C81.9551 8.86953 82.0341 8.46762 82.1878 8.09263C82.3414 7.71765 82.5665 7.37693 82.8503 7.08992C83.1342 6.80292 83.4711 6.57526 83.842 6.41993C84.2128 6.26461 84.6103 6.18466 85.0117 6.18466C85.8224 6.18467 86.5998 6.5103 87.1731 7.08993C87.7463 7.66956 88.0683 8.4557 88.0683 9.27541ZM89.6083 9.27541C89.6083 10.5081 89.1241 11.6904 88.262 12.562C87.4 13.4337 86.2308 13.9234 85.0117 13.9234C84.4081 13.9234 83.8103 13.8032 83.2526 13.5696C82.6949 13.336 82.1882 12.9936 81.7614 12.562C81.3345 12.1304 80.9959 11.618 80.7649 11.0541C80.5339 10.4902 80.415 9.8858 80.415 9.27541C80.415 8.66503 80.5339 8.06063 80.7649 7.49671C80.9959 6.93279 81.3345 6.4204 81.7614 5.98879C82.1882 5.55719 82.6949 5.21482 83.2526 4.98124C83.8103 4.74766 84.4081 4.62744 85.0117 4.62744C86.2308 4.62744 87.4 5.11714 88.262 5.9888C89.1241 6.86047 89.6083 8.0427 89.6083 9.27541Z" fill="white"/>
<path fill-rule="evenodd" clip-rule="evenodd" d="M95.1142 4.62744C92.5756 4.62744 90.5176 6.70841 90.5176 9.27541C90.5176 11.8424 92.5756 13.9234 95.1142 13.9234C96.0386 13.9234 96.9201 13.8563 97.7051 13.4941V11.8782C97.0472 12.3456 96.168 12.3657 95.1142 12.3664C93.4261 12.3663 92.0577 10.9824 92.0578 9.27541C92.0577 7.56841 93.4261 6.18449 95.1142 6.18436C96.168 6.18507 97.0472 6.20516 97.7051 6.67263V5.05669C96.9201 4.69448 96.0386 4.62737 95.1142 4.62744Z" fill="white"/>
<path fill-rule="evenodd" clip-rule="evenodd" d="M113.526 9.27541C113.526 10.0951 113.204 10.8813 112.631 11.4609C112.058 12.0405 111.28 12.3662 110.47 12.3662C110.068 12.3662 109.671 12.2862 109.3 12.1309C108.929 11.9756 108.592 11.7479 108.308 11.4609C108.025 11.1739 107.799 10.8332 107.646 10.4582C107.492 10.0832 107.413 9.6813 107.413 9.27541C107.413 8.86953 107.492 8.46762 107.646 8.09263C107.799 7.71765 108.025 7.37693 108.308 7.08992C108.592 6.80292 108.929 6.57526 109.3 6.41993C109.671 6.26461 110.068 6.18466 110.47 6.18466C111.28 6.18467 112.058 6.5103 112.631 7.08993C113.204 7.66956 113.526 8.4557 113.526 9.27541ZM115.066 9.27541C115.066 10.5081 114.582 11.6904 113.72 12.562C112.858 13.4337 111.689 13.9234 110.47 13.9234C109.866 13.9234 109.268 13.8032 108.711 13.5696C108.153 13.336 107.646 12.9936 107.219 12.562C106.793 12.1304 106.454 11.618 106.223 11.0541C105.992 10.4902 105.873 9.8858 105.873 9.27541C105.873 8.66503 105.992 8.06063 106.223 7.49671C106.454 6.93279 106.793 6.4204 107.219 5.98879C107.646 5.55719 108.153 5.21482 108.711 4.98124C109.268 4.74766 109.866 4.62744 110.47 4.62744C111.689 4.62744 112.858 5.11714 113.72 5.9888C114.582 6.86047 115.066 8.0427 115.066 9.27541Z" fill="white"/>
<path d="M122.286 11.1911C122.286 11.9979 122.018 12.606 121.477 13.051C120.939 13.4967 120.202 13.7242 119.25 13.7242H116.155V4.82085L118.71 4.8208C119.915 4.8208 120.777 5.00864 121.292 5.357C121.811 5.70191 122.068 6.23919 122.068 7.0166C122.068 7.5451 121.951 7.96718 121.686 8.30627C121.421 8.64537 121.133 8.82107 120.748 9.01986C121.208 9.27554 121.66 9.536 121.891 9.87019C122.122 10.2044 122.286 10.6197 122.286 11.1911ZM117.823 6.17498V8.43906H117.94H118.915C119.421 8.43906 119.8 8.35969 120.053 8.17232C120.31 7.98466 120.435 7.67054 120.435 7.27288C120.435 6.89649 120.293 6.59583 120.017 6.42442C119.745 6.2497 119.347 6.17498 118.816 6.17498H117.823ZM117.823 9.74361V9.86013V12.3573H119.044C119.561 12.3573 119.961 12.2535 120.23 12.0232C120.499 11.7933 120.628 11.44 120.628 10.9972C120.628 10.592 120.485 10.2626 120.2 10.0509C119.916 9.83906 119.509 9.74361 118.986 9.74361H117.823Z" fill="white"/>
<path fill-rule="evenodd" clip-rule="evenodd" d="M127.608 4.62744C125.07 4.62744 123.012 6.70841 123.012 9.27541C123.012 11.8424 125.07 13.9234 127.608 13.9234C128.533 13.9234 129.414 13.8563 130.199 13.4941V11.8782C129.541 12.3456 128.662 12.3657 127.608 12.3664C125.92 12.3663 124.552 10.9824 124.552 9.27541C124.552 7.56841 125.92 6.18449 127.608 6.18436C128.662 6.18507 129.541 6.20516 130.199 6.67263V5.05669C129.414 4.69448 128.533 4.62737 127.608 4.62744Z" fill="white"/>
<path d="M131.148 4.81934L132.924 4.81947V13.723L131.148 13.7229V4.81934ZM136.636 4.81968L132.924 9.03079L136.84 13.723H138.819L134.903 9.03079L138.615 4.81968H136.636Z" fill="white"/>
<path d="M139.545 4.81935V13.7231H139.863H141.341H141.414L145.639 7.12701V13.7231H147.435V4.81979H147.117H145.639H145.565L141.341 11.4159V4.81979L139.545 4.81935Z" fill="white"/>
<path d="M148.705 4.81935V13.7231H149.023H150.501H150.574L154.8 7.12701V13.7231H156.595V4.81979H156.277H154.8H154.726L150.501 11.4159V4.81979L148.705 4.81935Z" fill="white"/>
<path d="M151.773 2.979L150.813 3.16054C150.901 3.62673 151.148 4.04762 151.512 4.35057C151.876 4.65351 152.335 4.81949 152.808 4.81986C153.281 4.81959 153.739 4.65366 154.103 4.3507C154.467 4.04775 154.715 3.6268 154.802 3.16054L153.843 2.979C153.797 3.22089 153.669 3.43925 153.48 3.5964C153.291 3.75354 153.053 3.83961 152.808 3.83974C152.562 3.83961 152.324 3.75354 152.135 3.5964C151.947 3.43926 151.818 3.22089 151.773 2.979Z" fill="white"/>
<path d="M98.6641 4.81934L100.44 4.81947V13.723L98.6641 13.7229V4.81934ZM104.151 4.81968L100.44 9.03079L104.355 13.723H106.335L102.419 9.03079L106.131 4.81968H104.151Z" fill="white"/>
<path d="M70.4541 15.8486V24.752H72.2503V17.7847L74.9143 20.9366L77.5778 17.7852V24.752H79.374V15.8486H79.2144H77.5778H77.3963L74.9143 18.7859L72.4322 15.8486H72.2503H70.4541Z" fill="white"/>
<path d="M83.4445 15.8486L79.9248 24.752H81.6487L82.4532 22.557H86.3765L87.181 24.752H88.9049L85.3852 15.8486H84.9116H83.4445ZM84.4149 17.2043L85.952 21.3989H82.8777L84.4149 17.2043Z" fill="white"/>
<path d="M92.3799 15.8487C93.458 15.8487 94.2525 16.0862 94.7833 16.5363V16.5369C95.3167 16.9821 95.5858 17.6386 95.5858 18.5607C95.5858 19.5199 95.2988 20.22 94.7256 20.7126C94.1557 21.2058 93.3314 21.4623 92.23 21.4623H91.2332V24.752H89.6221V15.8486L92.3799 15.8487ZM91.2339 20.2011H91.4037H92.0384C92.6532 20.2011 93.1357 20.0809 93.4735 19.8097V19.809C93.8086 19.5353 93.9782 19.1235 93.9782 18.6302C93.9782 18.1394 93.8401 17.7408 93.5478 17.4823C93.2579 17.2223 92.8287 17.1098 92.2791 17.1098L91.2332 17.1098L91.2339 20.2011Z" fill="white"/>
<path d="M98.3986 15.8486L94.8789 24.752H96.6029L97.4073 22.557H101.331L102.135 24.752H103.859L100.339 15.8486H99.8657H98.3986ZM99.369 17.2043L100.906 21.3989H97.8318L99.369 17.2043Z" fill="white"/>
<path d="M107.673 15.8486V16.6016C106.741 16.6464 105.787 16.8643 105.04 17.4261C104.176 18.0771 103.672 19.1598 103.657 20.244C103.649 20.7897 103.758 21.3391 103.992 21.8317C104.227 22.3244 104.588 22.7586 105.04 23.0618C105.802 23.5718 106.758 23.6828 107.673 23.7043V24.752H109.258V23.7043C110.173 23.6828 111.129 23.5718 111.89 23.0618C112.343 22.7586 112.704 22.3244 112.938 21.8317C113.173 21.3391 113.282 20.7897 113.274 20.244C113.258 19.1598 112.755 18.0771 111.89 17.4261C111.144 16.8643 110.19 16.6464 109.258 16.6016V15.8486H108.465H107.673ZM107.673 17.6537V22.7533C107.112 22.7064 106.537 22.5469 106.124 22.1644C105.867 21.9269 105.685 21.614 105.576 21.2809C105.467 20.9478 105.429 20.5944 105.432 20.244C105.436 19.8949 105.48 19.5441 105.59 19.2129C105.7 18.8816 105.877 18.5702 106.124 18.324C106.53 17.9184 107.103 17.7142 107.673 17.6537ZM109.258 17.6537C109.828 17.7142 110.401 17.9184 110.807 18.324C111.054 18.5702 111.231 18.8816 111.34 19.2129C111.45 19.5441 111.495 19.8949 111.498 20.244C111.501 20.5944 111.463 20.9478 111.355 21.2809C111.246 21.614 111.064 21.9269 110.807 22.1644C110.393 22.5469 109.818 22.7064 109.258 22.7533V17.6537Z" fill="white"/>
<path fill-rule="evenodd" clip-rule="evenodd" d="M121.76 20.3003C121.76 21.12 121.438 21.9062 120.864 22.4858C120.291 23.0654 119.514 23.3911 118.703 23.3911C118.302 23.3911 117.904 23.3111 117.533 23.1558C117.163 23.0005 116.826 22.7728 116.542 22.4858C116.258 22.1988 116.033 21.8581 115.879 21.4831C115.726 21.1081 115.646 20.7062 115.646 20.3003C115.646 19.8944 115.726 19.4925 115.879 19.1175C116.033 18.7425 116.258 18.4018 116.542 18.1148C116.826 17.8278 117.163 17.6002 117.533 17.4448C117.904 17.2895 118.302 17.2096 118.703 17.2096C119.514 17.2096 120.291 17.5352 120.864 18.1148C121.438 18.6945 121.76 19.4806 121.76 20.3003ZM123.3 20.3003C123.3 21.533 122.815 22.7153 121.953 23.5869C121.091 24.4586 119.922 24.9483 118.703 24.9483C118.099 24.9483 117.502 24.8281 116.944 24.5945C116.386 24.3609 115.88 24.0185 115.453 23.5869C115.026 23.1553 114.687 22.6429 114.456 22.079C114.225 21.5151 114.106 20.9107 114.106 20.3003C114.106 19.6899 114.225 19.0855 114.456 18.5216C114.687 17.9577 115.026 17.4453 115.453 17.0137C115.88 16.5821 116.386 16.2397 116.944 16.0061C117.502 15.7726 118.099 15.6523 118.703 15.6523C119.922 15.6523 121.091 16.142 121.953 17.0137C122.815 17.8854 123.3 19.0676 123.3 20.3003Z" fill="white"/>
<path d="M124.269 15.8482V24.752H126.044V20.823H130.363V24.752H132.139V15.8486L130.363 15.8482V19.4208H126.044V15.8486L124.269 15.8482Z" fill="white"/>
<path fill-rule="evenodd" clip-rule="evenodd" d="M53.4384 4.65418C50.0909 3.09112 45.5405 2.38251 41.9552 3.27468C38.1308 4.22635 34.6827 6.62354 32.4528 9.88106C30.2911 13.039 29.3013 16.8693 28.8764 20.6757C28.491 24.1289 28.5388 27.62 28.8154 31.0837C29.058 34.1207 29.4757 37.1421 30.0073 40.1419C30.5436 43.1678 31.196 46.1729 31.9622 49.1486C34.7651 47.9049 37.5203 46.5535 40.2197 45.0977C42.8957 43.6546 45.5181 42.1084 48.0439 40.4149C50.9246 38.4835 53.6848 36.355 56.1466 33.9094C58.8602 31.2136 61.2419 28.0588 62.3706 24.3996C63.5349 20.625 63.2705 16.4262 61.642 12.8283C60.1153 9.45537 56.7378 6.31672 53.4384 4.65418ZM49.3261 13.1741C51.9613 14.4529 53.4964 17.0952 53.4964 19.8462C53.4964 20.9286 53.2588 22.0278 52.757 23.0674C50.9799 26.7494 46.5624 28.2896 42.8904 26.5077C40.2551 25.2288 38.72 22.5865 38.72 19.8355C38.72 18.7532 38.9576 17.6539 39.4594 16.6143C40.7348 13.972 43.3699 12.4327 46.1135 12.4327C47.193 12.4327 48.2892 12.671 49.3261 13.1741Z" fill="white"/>
<path fill-rule="evenodd" clip-rule="evenodd" d="M31.3001 9.63409C29.0671 6.50253 25.6975 4.20219 21.9704 3.27467C18.385 2.3825 13.8346 3.09107 10.4873 4.655L10.4872 4.65416C7.18773 6.31665 3.81024 9.45532 2.28351 12.8283C0.655027 16.4262 0.390617 20.6249 1.55493 24.3995C2.68362 28.0588 5.06532 31.2136 7.77891 33.9094C10.2406 36.3549 13.0008 38.4834 15.8815 40.4149C18.4073 42.1084 21.0297 43.6546 23.7058 45.0977C25.9939 46.3317 28.3222 47.4907 30.6856 48.5728C30.0048 45.8477 29.4184 43.0989 28.9282 40.3328C28.3918 37.306 27.9689 34.2492 27.723 31.1705C27.4427 27.6605 27.3919 24.096 27.7873 20.5535C28.2063 16.7994 29.1707 12.9218 31.3001 9.63409ZM31.9634 49.1481C31.9633 49.1481 31.9633 49.1481 31.9633 49.1481C31.8708 48.7888 31.7799 48.429 31.6907 48.0688C31.0412 45.4463 30.4799 42.8018 30.0084 40.1413C29.4768 37.1416 29.0591 34.1201 28.8165 31.0831C28.5399 27.6195 28.4921 24.1283 28.8775 20.6752C29.2688 17.1695 30.1393 13.6436 31.9631 10.6413C33.7872 13.6437 34.6578 17.1698 35.049 20.6757C35.4344 24.1289 35.3867 27.6201 35.11 31.0837C34.8675 34.1207 34.4498 37.1421 33.9181 40.1419C33.3819 43.1676 32.7295 46.1725 31.9634 49.1481ZM17.8119 12.4326C16.7325 12.4326 15.6363 12.6709 14.5995 13.1741C11.9642 14.4529 10.4291 17.0952 10.4291 19.8462C10.4291 20.9286 10.6667 22.0278 11.1685 23.0674C12.4439 25.7097 15.079 27.2491 17.8226 27.2491C18.9021 27.2491 19.9983 27.0108 21.0351 26.5076C23.6704 25.2288 25.2055 22.5865 25.2055 19.8355C25.2055 18.7531 24.9679 17.6539 24.4661 16.6143C23.1907 13.972 20.5555 12.4326 17.8119 12.4326Z" fill="white"/>
<path d="M105.568 47.6357H104.522L105.758 39.9731H102.736L102.892 39.0273H109.825L109.669 39.9731H106.804L105.568 47.6357Z" fill="white"/>
<path d="M111.398 42.7525H116.114L116.715 39.0273H117.761L116.368 47.6357H115.322L115.958 43.6982H111.255L110.619 47.6357H109.573L110.966 39.0273H112.012L111.398 42.7525Z" fill="white"/>
<path d="M134.874 46.0851L135.933 39.0273H136.979L135.586 47.6357H134.611L130.538 40.5586H130.512L129.461 47.6357H128.415L129.808 39.0273H130.77L134.849 46.0851H134.874Z" fill="white"/>
<path d="M83.8072 39.0283L78.8535 47.6364H80.0529L81.2519 45.5887H85.422L85.9702 47.6364H87.1727L84.8054 39.0283H83.8072ZM84.0976 40.5591H84.1264L85.0235 44.0977L85.1692 44.6425H81.8045L82.1206 44.0977L84.0976 40.5591Z" fill="white"/>
<path d="M89.5842 39.0283L88.1914 47.6364H89.2373L89.8132 44.0719H90.6043C90.6534 44.0719 90.7056 44.0626 90.755 44.06L92.8149 47.6364H93.9827L91.7988 43.9059C92.2235 43.8212 92.597 43.7061 92.9032 43.551C93.2417 43.3752 93.5166 43.1653 93.728 42.9208C93.9393 42.6764 94.09 42.404 94.179 42.1038C94.2723 41.8035 94.3114 41.4834 94.296 41.1446C94.2746 40.6727 94.1186 40.2634 93.8291 39.916C93.5436 39.5643 93.1175 39.3136 92.5503 39.1635C92.377 39.1163 92.1762 39.0816 91.9485 39.0601C91.7208 39.0387 91.4829 39.0283 91.2348 39.0283H89.5842ZM90.4744 39.9736H91.3418C91.7268 39.9736 92.0281 40.0057 92.2449 40.07C92.5617 40.1687 92.7972 40.3187 92.9518 40.5203C93.1104 40.7176 93.1958 40.9449 93.2075 41.2022C93.2151 41.3695 93.1989 41.5412 93.16 41.7171C93.125 41.8887 93.0513 42.0561 92.9389 42.2191C92.8306 42.3778 92.6797 42.5261 92.4849 42.6634C92.2941 42.7964 92.0466 42.903 91.7424 42.9845C91.5648 43.0316 91.3632 43.0681 91.1376 43.0938C90.9162 43.1152 90.6516 43.1266 90.3436 43.1266H89.9689L90.4744 39.9736Z" fill="white"/>
<path d="M78.1218 39.0264L74.7939 42.3096L72.494 39.0264H71.4254L70.0762 47.6364H71.122L72.2492 40.4468L74.6511 43.8781L78.0276 40.5472L76.9163 47.6355H77.9622L79.3123 39.0254L78.1218 39.0264Z" fill="white"/>
<path d="M78.1999 27.395L74.872 30.6782L72.5721 27.395H71.5035L70.1543 36.0051H71.2002L72.3273 28.8155L74.7293 32.2468L78.1057 28.9159L76.9944 36.0041H78.0403L79.3905 27.394L78.1999 27.395Z" fill="white"/>
<path fill-rule="evenodd" clip-rule="evenodd" d="M126.553 43.332C126.484 43.773 126.329 44.2097 126.097 44.6172C125.864 45.0247 125.56 45.3949 125.2 45.7068C124.84 46.0186 124.432 46.266 123.999 46.4348C123.566 46.6035 123.117 46.6904 122.677 46.6904C121.789 46.6904 120.993 46.3366 120.463 45.7068C119.934 45.0769 119.715 44.2227 119.854 43.332C119.994 42.4413 120.481 41.5871 121.207 40.9572C121.934 40.3274 122.842 39.9736 123.73 39.9736C124.618 39.9736 125.415 40.3274 125.944 40.9572C126.474 41.5871 126.693 42.4413 126.553 43.332ZM127.496 43.332C127.317 44.4735 126.693 45.5683 125.762 46.3755C124.83 47.1827 123.668 47.6362 122.529 47.6362C121.965 47.6362 121.425 47.5248 120.938 47.3085C120.451 47.0922 120.027 46.7752 119.691 46.3755C119.355 45.9758 119.114 45.5013 118.98 44.9791C118.846 44.4569 118.822 43.8972 118.911 43.332C119.09 42.1905 119.714 41.0957 120.645 40.2885C121.577 39.4813 122.74 39.0278 123.878 39.0278C124.442 39.0278 124.983 39.1392 125.47 39.3555C125.956 39.5718 126.38 39.8888 126.716 40.2885C127.052 40.6882 127.294 41.1627 127.428 41.6849C127.561 42.2071 127.585 42.7668 127.496 43.332Z" fill="white" stroke="white" stroke-width="0.167125" stroke-linecap="square"/>
<path fill-rule="evenodd" clip-rule="evenodd" d="M87.9973 31.6987C87.9282 32.1397 87.7731 32.5764 87.541 32.9839C87.3088 33.3914 87.004 33.7616 86.6442 34.0735C86.2843 34.3853 85.8763 34.6327 85.4434 34.8015C85.0106 34.9702 84.5615 35.0571 84.1216 35.0571C83.2333 35.0571 82.4369 34.7033 81.9074 34.0735C81.378 33.4436 81.159 32.5894 81.2986 31.6987C81.4382 30.808 81.925 29.9538 82.6518 29.3239C83.3787 28.6941 84.286 28.3403 85.1743 28.3403C86.0626 28.3403 86.8591 28.6941 87.3885 29.3239C87.9179 29.9538 88.1369 30.808 87.9973 31.6987ZM88.9406 31.6987C88.7616 32.8402 88.1378 33.935 87.2063 34.7422C86.2748 35.5494 85.1119 36.0029 83.9734 36.0029C83.4097 36.0029 82.869 35.8915 82.3821 35.6752C81.8952 35.4589 81.4716 35.1419 81.1357 34.7422C80.7997 34.3425 80.5579 33.868 80.424 33.3458C80.2901 32.8236 80.2668 32.2639 80.3554 31.6987C80.5343 30.5572 81.1582 29.4624 82.0897 28.6552C83.0212 27.848 84.1841 27.3945 85.3226 27.3945C85.8863 27.3945 86.427 27.5059 86.9139 27.7222C87.4008 27.9385 87.8243 28.2555 88.1603 28.6552C88.4963 29.0549 88.7381 29.5294 88.872 30.0516C89.0058 30.5738 89.0291 31.1335 88.9406 31.6987Z" fill="white" stroke="white" stroke-width="0.167125" stroke-linecap="square"/>
<path fill-rule="evenodd" clip-rule="evenodd" d="M110.566 31.6987C110.497 32.1397 110.342 32.5764 110.109 32.9839C109.877 33.3914 109.572 33.7616 109.213 34.0735C108.853 34.3853 108.445 34.6327 108.012 34.8015C107.579 34.9702 107.13 35.0571 106.69 35.0571C105.802 35.0571 105.005 34.7033 104.476 34.0735C103.946 33.4436 103.727 32.5894 103.867 31.6987C104.007 30.808 104.493 29.9538 105.22 29.3239C105.947 28.6941 106.854 28.3403 107.743 28.3403C108.631 28.3403 109.427 28.6941 109.957 29.3239C110.486 29.9538 110.705 30.808 110.566 31.6987ZM111.509 31.6987C111.33 32.8402 110.706 33.935 109.775 34.7422C108.843 35.5494 107.68 36.0029 106.542 36.0029C105.978 36.0029 105.437 35.8915 104.95 35.6752C104.464 35.4589 104.04 35.1419 103.704 34.7422C103.368 34.3425 103.126 33.868 102.992 33.3458C102.858 32.8236 102.835 32.2639 102.924 31.6987C103.103 30.5572 103.727 29.4624 104.658 28.6552C105.59 27.848 106.752 27.3945 107.891 27.3945C108.455 27.3945 108.995 27.5059 109.482 27.7222C109.969 27.9385 110.393 28.2555 110.729 28.6552C111.065 29.0549 111.306 29.5294 111.44 30.0516C111.574 30.5738 111.598 31.1335 111.509 31.6987Z" fill="white" stroke="white" stroke-width="0.167125" stroke-linecap="square"/>
<path d="M118.803 31.3899C118.724 30.5921 118.673 29.9959 118.652 29.6013C118.635 29.1938 118.625 28.9729 118.624 28.9386H118.585C118.315 29.6335 118.017 30.3605 117.689 31.1197L115.495 36.0029H114.319L112.391 27.3945H113.643L114.623 32.1169C114.882 33.3951 115.028 34.2014 115.062 34.536H115.093C115.27 34.0256 115.591 33.2406 116.056 32.1812L118.147 27.3945H119.462L120.004 32.2713C120.09 33.0991 120.159 33.854 120.212 34.536H120.242C120.383 34.1971 120.54 33.8433 120.715 33.4744C120.89 33.1055 121.117 32.6638 121.396 32.1491L124.066 27.3945H125.449L120.484 36.0029H119.308L118.803 31.3899Z" fill="white"/>
<path d="M95.346 28.649C94.4251 28.2532 93.3832 28.0018 92.3847 28.2108C91.7805 28.3352 91.105 28.7639 91.049 29.4199C90.9648 29.9128 91.3864 30.3652 91.8344 30.5905C92.7018 31.0578 93.1566 31.0555 93.9345 31.7036C94.6625 32.3097 94.7699 33.4041 94.4638 34.2536C94.1337 35.1786 93.2105 35.7366 92.2851 35.9115C91.2311 36.1204 90.6414 36.1335 89.6301 35.7773C89.4759 35.7156 89.3234 35.6459 89.1855 35.5524L89.3424 34.6259C90.3672 35.1899 91.0956 35.2407 92.2272 34.9421C92.8378 34.7889 93.4164 34.323 93.5013 33.667C93.6074 33.1454 93.4182 32.5598 92.9473 32.2788C92.0786 31.7732 91.6024 31.7999 90.7998 31.158C90.296 30.777 89.9042 30.1865 89.9584 29.57C89.969 28.6738 90.6131 27.8351 91.4451 27.4982C92.4709 27.0647 93.64 27.1558 94.6949 27.4266C94.967 27.4995 95.2361 27.5858 95.4952 27.6968L95.346 28.649Z" fill="white"/>
<path d="M100.596 28.1346C100.187 28.1346 99.8074 28.1946 99.4577 28.3147C99.108 28.4348 98.7921 28.6021 98.5099 28.8165C98.232 29.0267 97.9853 29.2776 97.7698 29.5693C97.5585 29.8566 97.3846 30.1719 97.2481 30.515C97.1113 30.8539 97.0114 31.212 96.9485 31.5895C96.8855 31.9669 96.8632 32.3465 96.8814 32.7282C96.9058 33.2386 97.0044 33.6547 97.1773 33.9764C97.3501 34.2981 97.5668 34.549 97.8274 34.7291C98.0879 34.9093 98.3795 35.0336 98.7023 35.1023C99.0248 35.1666 99.348 35.1988 99.6719 35.1988C100.036 35.1988 100.386 35.1666 100.72 35.1023C101.054 35.0379 101.357 34.9629 101.627 34.8771L101.464 35.8357C101.185 35.9344 100.876 36.0073 100.536 36.0545C100.201 36.1059 99.865 36.1317 99.5276 36.1317C99.0192 36.1317 98.5392 36.0673 98.0876 35.9387C97.6406 35.81 97.2464 35.6105 96.905 35.3403C96.5682 35.0701 96.2952 34.7248 96.0862 34.3045C95.8816 33.8842 95.7654 33.3823 95.7375 32.799C95.717 32.3701 95.7412 31.9347 95.8102 31.493C95.8833 31.0469 96.0045 30.618 96.1738 30.2062C96.3429 29.7902 96.5604 29.3998 96.8265 29.0353C97.0925 28.6707 97.4103 28.3533 97.7798 28.0831C98.1491 27.8086 98.5707 27.5941 99.0448 27.4397C99.5231 27.281 100.052 27.2017 100.633 27.2017C101.015 27.2017 101.372 27.2338 101.704 27.2982C102.035 27.3582 102.322 27.4311 102.564 27.5169L102.407 28.4498C102.151 28.364 101.879 28.2911 101.593 28.2311C101.307 28.1667 100.974 28.1346 100.596 28.1346Z" fill="white"/>
<path d="M99.5083 39.0273L94.5547 47.6354H95.7541L96.9531 45.5878H101.123L101.671 47.6354H102.874L100.507 39.0273H99.5083ZM99.7988 40.5581H99.8275L100.725 44.0968L100.87 44.6415H97.5057L97.8218 44.0968L99.7988 40.5581Z" fill="white"/>
</g>
<defs>
<clipPath id="clip0_13_8">
<rect width="159.373" height="49.8428" fill="white" transform="translate(0.660156 0.875)"/>
</clipPath>
</defs>
</svg>
