<svg width="239" height="45" viewBox="0 0 239 45" fill="none" xmlns="http://www.w3.org/2000/svg">
<path d="M14.138 1.39521C14.8109 0.498567 15.6961 7.47368e-05 16.6154 7.47368e-05L222.11 0C223.016 0 223.89 0.484424 224.559 1.35833L237.814 18.6542C239.395 20.7183 239.395 24.2817 237.814 26.3457L224.559 43.6416C223.89 44.5155 223.016 44.9999 222.11 44.9999L16.6154 45C15.6961 45 14.8109 44.5015 14.138 43.6049L1.15838 26.309C-0.386129 24.2508 -0.386126 20.7492 1.15838 18.6911L14.138 1.39521Z" fill="white"/>
<path d="M25.2109 28V16.3636H28.37V20.9091H32.5518V16.3636H35.7109V28H32.5518V23.4545H28.37V28H25.2109ZM40.2337 28H36.8246L40.6655 16.3636H44.9837L48.8246 28H45.4155L42.87 19.5682H42.7791L40.2337 28ZM39.5973 23.4091H46.0064V25.7727H39.5973V23.4091ZM56.1555 28H52.7464L56.5874 16.3636H60.9055L64.7464 28H61.3374L58.7919 19.5682H58.701L56.1555 28ZM55.5192 23.4091H61.9283V25.7727H55.5192V23.4091ZM65.8672 28V16.3636H74.049V18.9091H69.0263V20.9091H73.549V23.4545H69.0263V28H65.8672ZM74.8928 18.9091V16.3636H85.0064V18.9091H81.5064V28H78.3928V18.9091H74.8928ZM86.1953 28V16.3636H94.5817V18.9091H89.3544V20.9091H94.1499V23.4545H89.3544V25.4545H94.5589V28H86.1953ZM96.1484 28V16.3636H101.171C102.035 16.3636 102.79 16.5208 103.438 16.8352C104.086 17.1496 104.59 17.6023 104.95 18.1932C105.309 18.7841 105.489 19.4924 105.489 20.3182C105.489 21.1515 105.304 21.8542 104.933 22.4261C104.565 22.9981 104.048 23.4299 103.381 23.7216C102.719 24.0133 101.944 24.1591 101.058 24.1591H98.0575V21.7045H100.421C100.792 21.7045 101.109 21.6591 101.37 21.5682C101.635 21.4735 101.838 21.3239 101.978 21.1193C102.122 20.9148 102.194 20.6477 102.194 20.3182C102.194 19.9848 102.122 19.714 101.978 19.5057C101.838 19.2936 101.635 19.1383 101.37 19.0398C101.109 18.9375 100.792 18.8864 100.421 18.8864H99.3075V28H96.1484ZM102.967 22.6591L105.876 28H102.444L99.603 22.6591H102.967ZM106.836 28V16.3636H111.859C112.722 16.3636 113.478 16.5341 114.126 16.875C114.773 17.2159 115.277 17.6951 115.637 18.3125C115.997 18.9299 116.177 19.6515 116.177 20.4773C116.177 21.3106 115.991 22.0322 115.62 22.642C115.253 23.2519 114.736 23.7216 114.069 24.0511C113.406 24.3807 112.631 24.5455 111.745 24.5455H108.745V22.0909H111.109C111.48 22.0909 111.796 22.0265 112.058 21.8977C112.323 21.7652 112.525 21.5777 112.665 21.3352C112.809 21.0928 112.881 20.8068 112.881 20.4773C112.881 20.1439 112.809 19.8598 112.665 19.625C112.525 19.3864 112.323 19.2045 112.058 19.0795C111.796 18.9508 111.48 18.8864 111.109 18.8864H109.995V28H106.836ZM118.906 28H115.496L119.337 16.3636H123.656L127.496 28H124.087L121.542 19.5682H121.451L118.906 28ZM118.269 23.4091H124.678V25.7727H118.269V23.4091ZM128.617 28V16.3636H133.64C134.504 16.3636 135.259 16.5208 135.907 16.8352C136.555 17.1496 137.058 17.6023 137.418 18.1932C137.778 18.7841 137.958 19.4924 137.958 20.3182C137.958 21.1515 137.772 21.8542 137.401 22.4261C137.034 22.9981 136.517 23.4299 135.85 23.7216C135.187 24.0133 134.413 24.1591 133.526 24.1591H130.526V21.7045H132.89C133.261 21.7045 133.577 21.6591 133.839 21.5682C134.104 21.4735 134.307 21.3239 134.447 21.1193C134.591 20.9148 134.663 20.6477 134.663 20.3182C134.663 19.9848 134.591 19.714 134.447 19.5057C134.307 19.2936 134.104 19.1383 133.839 19.0398C133.577 18.9375 133.261 18.8864 132.89 18.8864H131.776V28H128.617ZM135.435 22.6591L138.344 28H134.913L132.072 22.6591H135.435ZM138.987 18.9091V16.3636H149.1V18.9091H145.6V28H142.487V18.9091H138.987ZM149.812 16.3636H153.335L155.607 21.0909H155.698L157.971 16.3636H161.494L157.221 24.3409V28H154.085V24.3409L149.812 16.3636ZM165.711 28V16.3636H170.756C171.643 16.3636 172.387 16.483 172.989 16.7216C173.595 16.9602 174.052 17.2973 174.359 17.733C174.669 18.1686 174.825 18.6818 174.825 19.2727C174.825 19.7008 174.73 20.0909 174.54 20.4432C174.355 20.7955 174.094 21.0909 173.756 21.3295C173.419 21.5644 173.025 21.7273 172.575 21.8182V21.9318C173.075 21.9508 173.529 22.0777 173.938 22.3125C174.347 22.5436 174.673 22.8636 174.915 23.2727C175.158 23.678 175.279 24.1553 175.279 24.7045C175.279 25.3409 175.112 25.9072 174.779 26.4034C174.45 26.8996 173.98 27.2898 173.37 27.5739C172.76 27.858 172.033 28 171.188 28H165.711ZM168.87 25.4773H170.347C170.878 25.4773 171.275 25.3788 171.54 25.1818C171.806 24.9811 171.938 24.6856 171.938 24.2955C171.938 24.0227 171.876 23.7917 171.751 23.6023C171.626 23.4129 171.448 23.2689 171.217 23.1705C170.989 23.072 170.715 23.0227 170.393 23.0227H168.87V25.4773ZM168.87 21.0682H170.165C170.442 21.0682 170.686 21.0246 170.898 20.9375C171.111 20.8504 171.275 20.7254 171.393 20.5625C171.514 20.3958 171.575 20.1932 171.575 19.9545C171.575 19.5947 171.446 19.3201 171.188 19.1307C170.931 18.9375 170.605 18.8409 170.211 18.8409H168.87V21.0682ZM175.921 16.3636H179.444L181.717 21.0909H181.808L184.08 16.3636H187.603L183.33 24.3409V28H180.194V24.3409L175.921 16.3636ZM196.298 28H191.82V16.3636H196.252C197.449 16.3636 198.483 16.5966 199.354 17.0625C200.229 17.5246 200.904 18.1913 201.377 19.0625C201.854 19.9299 202.093 20.9697 202.093 22.1818C202.093 23.3939 201.856 24.4356 201.383 25.3068C200.909 26.1742 200.239 26.8409 199.371 27.3068C198.504 27.7689 197.479 28 196.298 28ZM194.979 25.3182H196.184C196.76 25.3182 197.25 25.2254 197.656 25.0398C198.065 24.8542 198.375 24.5341 198.587 24.0795C198.803 23.625 198.911 22.9924 198.911 22.1818C198.911 21.3712 198.801 20.7386 198.582 20.2841C198.366 19.8295 198.048 19.5095 197.627 19.3239C197.21 19.1383 196.699 19.0455 196.093 19.0455H194.979V25.3182ZM208.032 28H203.555V16.3636H207.987C209.183 16.3636 210.218 16.5966 211.089 17.0625C211.964 17.5246 212.638 18.1913 213.112 19.0625C213.589 19.9299 213.827 20.9697 213.827 22.1818C213.827 23.3939 213.591 24.4356 213.117 25.3068C212.644 26.1742 211.973 26.8409 211.106 27.3068C210.238 27.7689 209.214 28 208.032 28ZM206.714 25.3182H207.918C208.494 25.3182 208.985 25.2254 209.39 25.0398C209.799 24.8542 210.11 24.5341 210.322 24.0795C210.538 23.625 210.646 22.9924 210.646 22.1818C210.646 21.3712 210.536 20.7386 210.316 20.2841C210.1 19.8295 209.782 19.5095 209.362 19.3239C208.945 19.1383 208.433 19.0455 207.827 19.0455H206.714V25.3182Z" fill="#FB641E"/>
</svg>
