<svg width="622" height="622" viewBox="0 0 622 622" fill="none" xmlns="http://www.w3.org/2000/svg">
<path d="M428.004 130.363L428.107 130.491L428.265 130.533L507.667 151.647L511.811 233.704L511.819 233.868L511.923 233.994L563.75 297.748L518.871 366.569L518.781 366.706L518.79 366.87L523.246 448.911L446.485 478.209L446.333 478.267L446.244 478.405L401.626 547.397L322.305 525.981L322.147 525.938L321.994 525.997L245.345 555.587L193.761 491.637L193.658 491.51L193.5 491.468L114.097 470.354L109.953 388.296L109.945 388.133L109.842 388.006L58.0142 324.252L102.894 255.431L102.983 255.294L102.974 255.13L98.5182 173.089L175.279 143.791L175.432 143.733L175.521 143.595L220.138 74.6034L299.46 96.0196L299.618 96.0622L299.77 96.0033L376.419 66.413L428.004 130.363Z" stroke="#FFE6B7"/>
<path d="M406.316 163.76L406.418 163.887L406.576 163.929L471.259 181.129L474.635 247.975L474.643 248.138L474.746 248.265L516.966 300.2L480.406 356.263L480.317 356.4L480.326 356.563L483.956 423.395L421.425 447.262L421.272 447.32L421.184 447.458L384.837 503.66L320.22 486.214L320.063 486.171L319.91 486.23L257.471 510.335L215.449 458.24L215.346 458.112L215.188 458.07L150.505 440.871L147.13 374.025L147.121 373.862L147.018 373.735L104.799 321.8L141.358 265.737L141.448 265.6L141.439 265.437L137.809 198.605L200.339 174.738L200.492 174.68L200.581 174.542L236.927 118.34L301.544 135.786L301.702 135.829L301.855 135.77L364.294 111.665L406.316 163.76Z" stroke="#FFE6B7"/>
<path d="M381.079 202.622L381.181 202.749L381.339 202.791L428.894 215.437L431.375 264.581L431.384 264.744L431.487 264.871L462.526 303.053L435.648 344.27L435.558 344.407L435.567 344.57L438.236 393.704L392.264 411.251L392.111 411.309L392.023 411.447L365.301 452.766L317.796 439.94L317.638 439.897L317.485 439.956L271.58 457.678L240.686 419.378L240.584 419.251L240.426 419.209L192.871 406.563L190.39 357.419L190.381 357.256L190.278 357.129L159.239 318.947L186.117 277.73L186.206 277.593L186.198 277.43L183.529 228.296L229.501 210.749L229.653 210.691L229.742 210.553L256.464 169.234L303.969 182.06L304.127 182.103L304.28 182.044L350.185 164.322L381.079 202.622Z" stroke="#FFE6B7"/>
</svg>
