<svg width="584" height="70" viewBox="0 0 584 70" fill="none" xmlns="http://www.w3.org/2000/svg">
<path d="M34.5464 2.17032C36.1906 0.775549 38.3536 0.000116257 40.6 0.000116257L542.729 0C544.943 0 547.078 0.753549 548.714 2.11296L581.101 29.0177C584.966 32.2284 584.966 37.7715 581.101 40.9822L548.714 67.8869C547.078 69.2463 544.943 69.9999 542.729 69.9999L40.6 70C38.3536 70 36.1906 69.2246 34.5464 67.8298L2.83052 40.9251C-0.943512 37.7235 -0.943505 32.2766 2.83053 29.075L34.5464 2.17032Z" fill="#FB641E"/>
<path d="M124.734 46.6765V23.4038H134.825C136.598 23.4038 138.087 23.6424 139.291 24.1197C140.503 24.597 141.416 25.2712 142.03 26.1424C142.651 27.0136 142.962 28.0401 142.962 29.222C142.962 30.078 142.772 30.8583 142.393 31.5629C142.022 32.2674 141.5 32.8583 140.825 33.3356C140.151 33.8053 139.363 34.1311 138.462 34.3129V34.5401C139.462 34.578 140.371 34.8318 141.189 35.3015C142.007 35.7636 142.659 36.4038 143.143 37.222C143.628 38.0326 143.871 38.9871 143.871 40.0856C143.871 41.3583 143.537 42.4909 142.871 43.4833C142.212 44.4758 141.272 45.2561 140.053 45.8242C138.833 46.3924 137.378 46.6765 135.689 46.6765H124.734ZM131.053 41.6311H134.007C135.068 41.6311 135.863 41.4341 136.393 41.0401C136.924 40.6386 137.189 40.0477 137.189 39.2674C137.189 38.722 137.064 38.2598 136.814 37.8811C136.564 37.5023 136.208 37.2144 135.746 37.0174C135.291 36.8205 134.742 36.722 134.098 36.722H131.053V41.6311ZM131.053 32.8129H133.643C134.196 32.8129 134.685 32.7258 135.109 32.5515C135.534 32.3773 135.863 32.1273 136.098 31.8015C136.34 31.4682 136.462 31.0629 136.462 30.5856C136.462 29.8659 136.204 29.3167 135.689 28.9379C135.174 28.5515 134.522 28.3583 133.734 28.3583H131.053V32.8129ZM152.882 23.4038L156.7 30.1765H156.882L160.746 23.4038H167.791L160.837 35.0401L168.064 46.6765H160.837L156.882 39.7674H156.7L152.746 46.6765H145.564L152.7 35.0401L145.791 23.4038H152.882ZM191.499 35.0401C191.499 37.6311 190.995 39.8167 189.987 41.597C188.98 43.3697 187.62 44.7144 185.908 45.6311C184.196 46.5402 182.286 46.9947 180.18 46.9947C178.059 46.9947 176.143 46.5364 174.43 45.6197C172.726 44.6955 171.37 43.347 170.362 41.5742C169.362 39.7939 168.862 37.6159 168.862 35.0401C168.862 32.4492 169.362 30.2674 170.362 28.4947C171.37 26.7144 172.726 25.3697 174.43 24.4606C176.143 23.5439 178.059 23.0856 180.18 23.0856C182.286 23.0856 184.196 23.5439 185.908 24.4606C187.62 25.3697 188.98 26.7144 189.987 28.4947C190.995 30.2674 191.499 32.4492 191.499 35.0401ZM184.999 35.0401C184.999 33.6462 184.813 32.472 184.442 31.5174C184.078 30.5553 183.536 29.828 182.817 29.3356C182.105 28.8356 181.226 28.5856 180.18 28.5856C179.135 28.5856 178.252 28.8356 177.533 29.3356C176.821 29.828 176.279 30.5553 175.908 31.5174C175.544 32.472 175.362 33.6462 175.362 35.0401C175.362 36.4341 175.544 37.6121 175.908 38.5742C176.279 39.5288 176.821 40.2561 177.533 40.7561C178.252 41.2485 179.135 41.4947 180.18 41.4947C181.226 41.4947 182.105 41.2485 182.817 40.7561C183.536 40.2561 184.078 39.5288 184.442 38.5742C184.813 37.6121 184.999 36.4341 184.999 35.0401ZM193.649 52.2674V41.8129H195.286C195.831 41.4795 196.323 41.0098 196.763 40.4038C197.21 39.7977 197.589 38.9303 197.899 37.8015C198.217 36.6727 198.452 35.1614 198.604 33.2674L199.376 23.4038H215.831V41.8129H218.286V52.2674H212.195V46.6765H199.74V52.2674H193.649ZM202.513 41.8129H209.74V28.4947H205.058L204.695 33.2674C204.589 34.6917 204.426 35.9379 204.206 37.0061C203.994 38.0667 203.74 38.9909 203.445 39.7788C203.157 40.5591 202.846 41.2371 202.513 41.8129ZM226.797 46.6765V23.4038H243.161V28.4947H233.115V31.222H235.479C237.433 31.222 239.142 31.5364 240.604 32.1651C242.073 32.7939 243.214 33.6803 244.024 34.8242C244.842 35.9682 245.251 37.3129 245.251 38.8583C245.251 40.4038 244.842 41.7636 244.024 42.9379C243.214 44.1121 242.073 45.0288 240.604 45.6879C239.142 46.347 237.433 46.6765 235.479 46.6765H226.797ZM233.115 41.722H235.479C236.236 41.722 236.873 41.597 237.388 41.347C237.911 41.097 238.304 40.7523 238.57 40.3129C238.842 39.8735 238.979 39.3735 238.979 38.8129C238.979 38.0174 238.679 37.3583 238.081 36.8356C237.482 36.3053 236.615 36.0401 235.479 36.0401H233.115V41.722ZM247.484 46.6765V23.4038H264.257V28.4947H253.803V32.4947H263.393V37.5856H253.803V41.5856H264.212V46.6765H247.484ZM289.118 32.1311H282.709C282.663 31.6008 282.542 31.1197 282.345 30.6879C282.156 30.2561 281.891 29.8848 281.55 29.5742C281.216 29.2561 280.811 29.0136 280.334 28.847C279.857 28.6727 279.315 28.5856 278.709 28.5856C277.648 28.5856 276.75 28.8432 276.016 29.3583C275.288 29.8735 274.735 30.6121 274.357 31.5742C273.985 32.5364 273.8 33.6917 273.8 35.0401C273.8 36.4644 273.989 37.6576 274.368 38.6197C274.754 39.5742 275.311 40.2939 276.038 40.7788C276.766 41.2561 277.641 41.4947 278.663 41.4947C279.247 41.4947 279.769 41.4227 280.232 41.2788C280.694 41.1273 281.095 40.9114 281.436 40.6311C281.777 40.3508 282.054 40.0136 282.266 39.6197C282.485 39.2182 282.633 38.7674 282.709 38.2674L289.118 38.3129C289.042 39.2977 288.766 40.3015 288.288 41.3242C287.811 42.3394 287.133 43.2788 286.254 44.1424C285.383 44.9985 284.304 45.6879 283.016 46.2106C281.728 46.7333 280.232 46.9947 278.527 46.9947C276.391 46.9947 274.474 46.5364 272.777 45.6197C271.088 44.703 269.75 43.3545 268.766 41.5742C267.788 39.7939 267.3 37.6159 267.3 35.0401C267.3 32.4492 267.8 30.2674 268.8 28.4947C269.8 26.7144 271.148 25.3697 272.845 24.4606C274.542 23.5439 276.436 23.0856 278.527 23.0856C279.997 23.0856 281.349 23.2864 282.584 23.6879C283.819 24.0894 284.902 24.6765 285.834 25.4492C286.766 26.2144 287.516 27.1576 288.084 28.2788C288.652 29.4 288.997 30.6841 289.118 32.1311ZM313.348 23.4038V46.6765H307.121V28.4038H299.257V46.6765H293.03V23.4038H313.348ZM316.618 46.6765V41.8129L317.254 41.722C318.027 41.6008 318.667 41.2674 319.175 40.722C319.69 40.1689 320.084 39.2939 320.357 38.097C320.637 36.8924 320.815 35.2523 320.891 33.1765L321.254 23.4038H338.118V46.6765H332.027V28.3129H327.072L326.709 35.6311C326.572 38.3432 326.209 40.5061 325.618 42.1197C325.027 43.7333 324.129 44.8962 322.925 45.6083C321.72 46.3205 320.133 46.6765 318.163 46.6765H316.618ZM347.155 46.6765H340.337L348.018 23.4038H356.655L364.337 46.6765H357.518L352.428 29.8129H352.246L347.155 46.6765ZM345.882 37.4947H358.7V42.222H345.882V37.4947ZM363.004 28.4947V23.4038H383.232V28.4947H376.232V46.6765H370.004V28.4947H363.004ZM385.609 46.6765V23.4038H391.928V32.4947H400.291V23.4038H406.609V46.6765H400.291V37.5856H391.928V46.6765H385.609ZM413.609 31.222H418.428C420.39 31.222 422.102 31.5364 423.564 32.1651C425.034 32.7939 426.174 33.6803 426.984 34.8242C427.803 35.9682 428.208 37.3129 428.2 38.8583C428.208 40.4038 427.803 41.7636 426.984 42.9379C426.174 44.1121 425.034 45.0288 423.564 45.6879C422.102 46.347 420.39 46.6765 418.428 46.6765H409.746V23.4038H416.064V41.722H418.428C419.193 41.722 419.833 41.597 420.348 41.347C420.871 41.097 421.265 40.7523 421.53 40.3129C421.803 39.8735 421.935 39.3735 421.928 38.8129C421.935 38.0174 421.64 37.3583 421.041 36.8356C420.443 36.3053 419.571 36.0401 418.428 36.0401H413.609V31.222ZM436.155 23.4038V46.6765H429.837V23.4038H436.155ZM439.141 23.4038H445.459V35.5856H445.641L453.913 23.4038H459.277V46.6765H452.959V34.4492H452.822L444.413 46.6765H439.141V23.4038ZM451.504 17.1311H455.459C455.451 18.6083 454.887 19.7901 453.766 20.6765C452.644 21.5553 451.133 21.9947 449.232 21.9947C447.315 21.9947 445.796 21.5553 444.675 20.6765C443.554 19.7901 442.997 18.6083 443.004 17.1311H446.913C446.906 17.6083 447.076 18.0477 447.425 18.4492C447.781 18.8432 448.383 19.0401 449.232 19.0401C450.042 19.0401 450.622 18.847 450.97 18.4606C451.319 18.0742 451.497 17.6311 451.504 17.1311Z" fill="white"/>
</svg>
