<svg width="34" height="34" viewBox="0 0 34 34" fill="none" xmlns="http://www.w3.org/2000/svg">
<path fill-rule="evenodd" clip-rule="evenodd" d="M16.8254 33.6509C26.1179 33.6509 33.6509 26.1179 33.6509 16.8254C33.6509 7.53301 26.1179 0 16.8254 0C7.53301 0 0 7.53301 0 16.8254C0 26.1179 7.53301 33.6509 16.8254 33.6509ZM17.9846 23.1349C11.6508 23.1349 8.03822 18.7927 7.8877 11.5674H11.0604C11.1646 16.8706 13.5035 19.1169 15.3561 19.5801V11.5674H18.3437V16.1411C20.1731 15.9443 22.095 13.86 22.7435 11.5674H25.7309C25.233 14.3927 23.1488 16.4769 21.6667 17.3338C23.1488 18.0285 25.5226 19.8464 26.4258 23.1349H23.1372C22.4309 20.9349 20.671 19.2327 18.3437 19.0011V23.1349H17.9846Z" fill="white"/>
</svg>
