<svg width="703" height="103" viewBox="0 0 703 103" fill="none" xmlns="http://www.w3.org/2000/svg">
<path d="M41.5858 3.19347C43.565 1.14117 46.1688 0.000171064 48.8729 0.000171064L653.319 0C655.985 0 658.554 1.10879 660.524 3.10907L699.511 42.6974C704.163 47.4218 704.163 55.578 699.511 60.3024L660.524 99.8907C658.554 101.891 655.985 103 653.319 103L48.873 103C46.1688 103 43.565 101.859 41.5858 99.8067L3.40729 60.2183C-1.13577 55.5075 -1.13576 47.4927 3.4073 42.7818L41.5858 3.19347Z" fill="white"/>
<path d="M87.312 68V35.2727H96.197V48.0568H107.958V35.2727H116.843V68H107.958V55.2159H96.197V68H87.312ZM129.563 68H119.975L130.778 35.2727H142.923L153.725 68H144.137L136.978 44.2855H136.723L129.563 68ZM127.774 55.0881H145.799V61.7358H127.774V55.0881ZM174.344 68H164.756L175.558 35.2727H187.703L198.506 68H188.918L181.758 44.2855H181.503L174.344 68ZM172.554 55.0881H190.58V61.7358H172.554V55.0881ZM201.658 68V35.2727H224.669V42.4318H210.543V48.0568H223.263V55.2159H210.543V68H201.658ZM227.042 42.4318V35.2727H255.487V42.4318H245.643V68H236.886V42.4318H227.042ZM258.831 68V35.2727H282.417V42.4318H267.716V48.0568H281.203V55.2159H267.716V60.8409H282.353V68H258.831ZM286.824 68V35.2727H300.95C303.379 35.2727 305.504 35.7148 307.326 36.5991C309.148 37.4833 310.565 38.7564 311.577 40.4183C312.589 42.0803 313.095 44.0724 313.095 46.3949C313.095 48.7386 312.573 50.7148 311.529 52.3235C310.496 53.9322 309.041 55.1467 307.166 55.967C305.302 56.7873 303.123 57.1974 300.631 57.1974H292.193V50.294H298.841C299.885 50.294 300.774 50.1662 301.509 49.9105C302.255 49.6442 302.825 49.2234 303.219 48.6481C303.624 48.0728 303.827 47.3217 303.827 46.3949C303.827 45.4574 303.624 44.6957 303.219 44.1097C302.825 43.5131 302.255 43.0763 301.509 42.7994C300.774 42.5117 299.885 42.3679 298.841 42.3679H295.709V68H286.824ZM306 52.9787L314.182 68H304.53L296.54 52.9787H306ZM316.882 68V35.2727H331.009C333.438 35.2727 335.563 35.7521 337.385 36.7109C339.207 37.6697 340.623 39.0174 341.636 40.7539C342.648 42.4904 343.154 44.5199 343.154 46.8423C343.154 49.1861 342.632 51.2156 341.588 52.9308C340.554 54.646 339.1 55.967 337.225 56.8938C335.361 57.8207 333.182 58.2841 330.689 58.2841H322.252V51.3807H328.899C329.943 51.3807 330.833 51.1996 331.568 50.8374C332.314 50.4645 332.884 49.9371 333.278 49.2553C333.683 48.5735 333.885 47.7692 333.885 46.8423C333.885 45.9048 333.683 45.1058 333.278 44.4453C332.884 43.7741 332.314 43.2628 331.568 42.9112C330.833 42.549 329.943 42.3679 328.899 42.3679H325.767V68H316.882ZM350.828 68H341.24L352.043 35.2727H364.187L374.99 68H365.402L358.243 44.2855H357.987L350.828 68ZM349.038 55.0881H367.064V61.7358H349.038V55.0881ZM378.142 68V35.2727H392.269C394.697 35.2727 396.823 35.7148 398.645 36.5991C400.466 37.4833 401.883 38.7564 402.895 40.4183C403.907 42.0803 404.413 44.0724 404.413 46.3949C404.413 48.7386 403.891 50.7148 402.847 52.3235C401.814 53.9322 400.36 55.1467 398.485 55.967C396.62 56.7873 394.442 57.1974 391.949 57.1974H383.511V50.294H390.159C391.203 50.294 392.093 50.1662 392.828 49.9105C393.574 49.6442 394.144 49.2234 394.538 48.6481C394.943 48.0728 395.145 47.3217 395.145 46.3949C395.145 45.4574 394.943 44.6957 394.538 44.1097C394.144 43.5131 393.574 43.0763 392.828 42.7994C392.093 42.5117 391.203 42.3679 390.159 42.3679H387.027V68H378.142ZM397.318 52.9787L405.5 68H395.848L387.858 52.9787H397.318ZM407.306 42.4318V35.2727H435.75V42.4318H425.907V68H417.15V42.4318H407.306ZM437.752 35.2727H447.66L454.052 48.5682H454.307L460.699 35.2727H470.607L458.59 57.7088V68H449.769V57.7088L437.752 35.2727ZM482.468 68V35.2727H496.659C499.152 35.2727 501.245 35.6083 502.939 36.2795C504.643 36.9506 505.927 37.8988 506.79 39.1239C507.664 40.3491 508.1 41.7926 508.1 43.4545C508.1 44.6584 507.834 45.7557 507.301 46.7464C506.779 47.7372 506.044 48.5682 505.096 49.2393C504.148 49.8999 503.04 50.358 501.772 50.6136V50.9332C503.178 50.9865 504.457 51.3434 505.607 52.0039C506.758 52.6538 507.674 53.554 508.356 54.7045C509.038 55.8445 509.379 57.1868 509.379 58.7315C509.379 60.5213 508.91 62.114 507.973 63.5096C507.046 64.9052 505.725 66.0025 504.009 66.8015C502.294 67.6005 500.249 68 497.873 68H482.468ZM491.353 60.9048H495.508C497 60.9048 498.118 60.6278 498.864 60.0739C499.61 59.5092 499.982 58.6783 499.982 57.581C499.982 56.8139 499.807 56.1641 499.455 55.6314C499.104 55.0987 498.603 54.6939 497.953 54.4169C497.314 54.1399 496.541 54.0014 495.636 54.0014H491.353V60.9048ZM491.353 48.5043H494.997C495.774 48.5043 496.462 48.3817 497.058 48.1367C497.655 47.8917 498.118 47.5401 498.448 47.082C498.789 46.6133 498.96 46.0433 498.96 45.3722C498.96 44.3601 498.598 43.5877 497.873 43.055C497.149 42.5117 496.232 42.2401 495.125 42.2401H491.353V48.5043ZM511.185 35.2727H521.092L527.484 48.5682H527.74L534.132 35.2727H544.04L532.023 57.7088V68H523.202V57.7088L511.185 35.2727ZM568.493 68H555.901V35.2727H568.365C571.732 35.2727 574.64 35.9279 577.091 37.2383C579.551 38.538 581.448 40.413 582.779 42.8633C584.122 45.3029 584.793 48.2273 584.793 51.6364C584.793 55.0455 584.127 57.9751 582.795 60.4254C581.464 62.8651 579.578 64.7401 577.138 66.0504C574.699 67.3501 571.817 68 568.493 68ZM564.786 60.4574H568.174C569.793 60.4574 571.173 60.1964 572.312 59.6744C573.463 59.1523 574.337 58.2521 574.933 56.9737C575.54 55.6953 575.844 53.9162 575.844 51.6364C575.844 49.3565 575.535 47.5774 574.917 46.299C574.31 45.0206 573.415 44.1204 572.233 43.5984C571.061 43.0763 569.622 42.8153 567.918 42.8153H564.786V60.4574ZM601.496 68H588.904V35.2727H601.368C604.735 35.2727 607.643 35.9279 610.093 37.2383C612.554 38.538 614.451 40.413 615.782 42.8633C617.125 45.3029 617.796 48.2273 617.796 51.6364C617.796 55.0455 617.13 57.9751 615.798 60.4254C614.467 62.8651 612.581 64.7401 610.141 66.0504C607.702 67.3501 604.82 68 601.496 68ZM597.789 60.4574H601.177C602.796 60.4574 604.175 60.1964 605.315 59.6744C606.466 59.1523 607.34 58.2521 607.936 56.9737C608.543 55.6953 608.847 53.9162 608.847 51.6364C608.847 49.3565 608.538 47.5774 607.92 46.299C607.313 45.0206 606.418 44.1204 605.235 43.5984C604.064 43.0763 602.625 42.8153 600.921 42.8153H597.789V60.4574Z" fill="#FB641E"/>
</svg>
