<svg width="34" height="35" viewBox="0 0 34 35" fill="none" xmlns="http://www.w3.org/2000/svg">
<path fill-rule="evenodd" clip-rule="evenodd" d="M16.8254 34.001C26.1179 34.001 33.6509 26.468 33.6509 17.1755C33.6509 7.88311 26.1179 0.350098 16.8254 0.350098C7.53301 0.350098 0 7.88311 0 17.1755C0 26.468 7.53301 34.001 16.8254 34.001ZM23.0996 10.5278C22.8773 10.4969 22.6508 10.5277 22.4439 10.6168L8.12889 16.7904C7.13102 17.2209 7.07995 18.6991 8.12972 19.145C8.90659 19.4751 9.85842 19.746 10.8847 19.921C11.4473 20.017 11.9178 19.921 12.8202 19.3585C13.8432 18.7205 16.9373 16.4543 18.8643 14.9641C19.6404 14.3638 19.94 14.7403 19.2829 15.3928C19.0551 15.6188 18.8039 15.8658 18.5397 16.1258C16.862 17.7761 14.6536 19.9484 14.4945 20.5906C14.2802 21.4601 16.0239 22.6819 16.5932 23.0635C17.7317 23.8258 18.9974 24.5563 19.8496 25.0305C20.8685 25.5972 22.0873 24.9447 22.2715 23.8069L24.1701 12.011C24.2066 11.7842 24.1829 11.5515 24.1018 11.3372C24.0206 11.1228 23.8848 10.9347 23.7086 10.7923C23.5324 10.65 23.3221 10.5586 23.0996 10.5278Z" fill="white"/>
</svg>
