<svg width="83" height="22" viewBox="0 0 83 22" fill="none" xmlns="http://www.w3.org/2000/svg">
<path d="M44.6508 21.582L36.7881 0H39.9322L46.4804 18.2908H47.2112L53.7594 0H56.9035L49.0408 21.582H44.6508Z" fill="white"/>
<path fill-rule="evenodd" clip-rule="evenodd" d="M59.6445 21.582V0H69.1553C70.3521 0 71.4214 0.26487 72.373 0.784801C73.3246 1.30964 74.0603 2.03067 74.5851 2.943C75.11 3.86024 75.3699 4.89029 75.3699 6.03316C75.3699 6.78853 75.2473 7.47032 75.0021 8.08345C74.7568 8.69167 74.4527 9.19198 74.0897 9.58438C73.7219 9.97678 73.3589 10.2564 72.991 10.428V10.6095C73.6973 10.9038 74.3301 11.463 74.8942 12.2919C75.4533 13.1209 75.7329 14.146 75.7329 15.3625C75.7329 16.5102 75.4582 17.555 74.9089 18.5066C74.3595 19.4582 73.609 20.2086 72.6575 20.758C71.7059 21.3073 70.6562 21.582 69.5134 21.582H59.6445ZM69.1553 9.32932C69.8126 9.32932 70.3914 9.19689 70.8917 8.92711C71.392 8.65734 71.7746 8.27474 72.0443 7.77443C72.3141 7.27412 72.4466 6.69533 72.4466 6.03806C72.4466 5.03744 72.1473 4.23792 71.5489 3.64442C70.9505 3.04601 70.151 2.7468 69.1553 2.7468H62.5728V9.32932H69.1553ZM69.5232 18.8401C70.4502 18.8401 71.2301 18.5115 71.8629 17.8542C72.4956 17.1969 72.8144 16.368 72.8144 15.3674C72.8144 14.3668 72.4956 13.5378 71.8629 12.8805C71.2301 12.2233 70.4502 11.8946 69.5232 11.8946H62.5728V18.845H69.5232V18.8401Z" fill="white"/>
<path d="M79.9368 0V21.582H82.8651V0H79.9368Z" fill="white"/>
<path d="M14.715 14.715L0 0H29.43L14.715 14.715Z" fill="white"/>
<path d="M0 6.86694L14.715 21.582H0V6.86694Z" fill="white"/>
<path d="M29.4299 6.86694L14.7148 21.582H29.4299V6.86694Z" fill="white"/>
</svg>
