<svg width="272" height="51" viewBox="0 0 272 51" fill="none" xmlns="http://www.w3.org/2000/svg">
<path d="M16.0901 1.58123C16.8559 0.565043 17.8633 8.47017e-05 18.9096 8.47017e-05L252.778 0C253.809 0 254.803 0.549014 255.566 1.53944L270.65 21.1415C272.45 23.4807 272.45 27.5192 270.65 29.8585L255.566 49.4605C254.803 50.4509 253.809 50.9999 252.778 50.9999L18.9096 51C17.8633 51 16.8559 50.435 16.0901 49.4188L1.31832 29.8168C-0.439444 27.4843 -0.439441 23.5158 1.31833 21.1832L16.0901 1.58123Z" fill="#FB641E"/>
<path d="M52.8672 31V19.3636H57.9126C58.799 19.3636 59.5433 19.483 60.1456 19.7216C60.7517 19.9602 61.2081 20.2973 61.5149 20.733C61.8255 21.1686 61.9808 21.6818 61.9808 22.2727C61.9808 22.7008 61.8861 23.0909 61.6967 23.4432C61.5111 23.7955 61.2498 24.0909 60.9126 24.3295C60.5755 24.5644 60.1816 24.7273 59.7308 24.8182V24.9318C60.2308 24.9508 60.6854 25.0777 61.0945 25.3125C61.5036 25.5436 61.8293 25.8636 62.0717 26.2727C62.3142 26.678 62.4354 27.1553 62.4354 27.7045C62.4354 28.3409 62.2687 28.9072 61.9354 29.4034C61.6058 29.8996 61.1361 30.2898 60.5263 30.5739C59.9164 30.858 59.1892 31 58.3445 31H52.8672ZM56.0263 28.4773H57.5036C58.0339 28.4773 58.4316 28.3788 58.6967 28.1818C58.9619 27.9811 59.0945 27.6856 59.0945 27.2955C59.0945 27.0227 59.032 26.7917 58.907 26.6023C58.782 26.4129 58.6039 26.2689 58.3729 26.1705C58.1456 26.072 57.871 26.0227 57.549 26.0227H56.0263V28.4773ZM56.0263 24.0682H57.3217C57.5982 24.0682 57.8426 24.0246 58.0547 23.9375C58.2668 23.8504 58.4316 23.7254 58.549 23.5625C58.6702 23.3958 58.7308 23.1932 58.7308 22.9545C58.7308 22.5947 58.602 22.3201 58.3445 22.1307C58.0869 21.9375 57.7611 21.8409 57.3672 21.8409H56.0263V24.0682ZM66.9411 19.3636L68.8501 22.75H68.9411L70.8729 19.3636H74.3956L70.9183 25.1818L74.532 31H70.9183L68.9411 27.5455H68.8501L66.8729 31H63.282L66.8501 25.1818L63.3956 19.3636H66.9411ZM86.2493 25.1818C86.2493 26.4773 85.9974 27.5701 85.4936 28.4602C84.9898 29.3466 84.3099 30.0189 83.4538 30.4773C82.5978 30.9318 81.6432 31.1591 80.5902 31.1591C79.5296 31.1591 78.5713 30.9299 77.7152 30.4716C76.8629 30.0095 76.1849 29.3352 75.6811 28.4489C75.1811 27.5587 74.9311 26.4697 74.9311 25.1818C74.9311 23.8864 75.1811 22.7955 75.6811 21.9091C76.1849 21.0189 76.8629 20.3466 77.7152 19.892C78.5713 19.4337 79.5296 19.2045 80.5902 19.2045C81.6432 19.2045 82.5978 19.4337 83.4538 19.892C84.3099 20.3466 84.9898 21.0189 85.4936 21.9091C85.9974 22.7955 86.2493 23.8864 86.2493 25.1818ZM82.9993 25.1818C82.9993 24.4848 82.9065 23.8977 82.7209 23.4205C82.5391 22.9394 82.2682 22.5758 81.9084 22.3295C81.5523 22.0795 81.1129 21.9545 80.5902 21.9545C80.0675 21.9545 79.6262 22.0795 79.2663 22.3295C78.9103 22.5758 78.6394 22.9394 78.4538 23.4205C78.272 23.8977 78.1811 24.4848 78.1811 25.1818C78.1811 25.8788 78.272 26.4678 78.4538 26.9489C78.6394 27.4261 78.9103 27.7898 79.2663 28.0398C79.6262 28.286 80.0675 28.4091 80.5902 28.4091C81.1129 28.4091 81.5523 28.286 81.9084 28.0398C82.2682 27.7898 82.5391 27.4261 82.7209 26.9489C82.9065 26.4678 82.9993 25.8788 82.9993 25.1818ZM87.3246 33.7955V28.5682H88.1428C88.4155 28.4015 88.6617 28.1667 88.8814 27.8636C89.1049 27.5606 89.2943 27.1269 89.4496 26.5625C89.6087 25.9981 89.7261 25.2424 89.8018 24.2955L90.1882 19.3636H98.4155V28.5682H99.6428V33.7955H96.5973V31H90.37V33.7955H87.3246ZM91.7564 28.5682H95.37V21.9091H93.0291L92.8473 24.2955C92.7943 25.0076 92.7128 25.6307 92.603 26.1648C92.4969 26.6951 92.37 27.1572 92.2223 27.5511C92.0784 27.9413 91.9231 28.2803 91.7564 28.5682ZM103.898 31V19.3636H112.08V21.9091H107.058V23.2727H108.239C109.217 23.2727 110.071 23.4299 110.802 23.7443C111.537 24.0587 112.107 24.5019 112.512 25.0739C112.921 25.6458 113.126 26.3182 113.126 27.0909C113.126 27.8636 112.921 28.5436 112.512 29.1307C112.107 29.7178 111.537 30.1761 110.802 30.5057C110.071 30.8352 109.217 31 108.239 31H103.898ZM107.058 28.5227H108.239C108.618 28.5227 108.936 28.4602 109.194 28.3352C109.455 28.2102 109.652 28.0379 109.785 27.8182C109.921 27.5985 109.989 27.3485 109.989 27.0682C109.989 26.6705 109.84 26.3409 109.54 26.0795C109.241 25.8144 108.808 25.6818 108.239 25.6818H107.058V28.5227ZM114.242 31V19.3636H122.629V21.9091H117.401V23.9091H122.197V26.4545H117.401V28.4545H122.606V31H114.242ZM135.059 23.7273H131.854C131.832 23.4621 131.771 23.2216 131.673 23.0057C131.578 22.7898 131.445 22.6042 131.275 22.4489C131.108 22.2898 130.906 22.1686 130.667 22.0852C130.428 21.9981 130.157 21.9545 129.854 21.9545C129.324 21.9545 128.875 22.0833 128.508 22.3409C128.144 22.5985 127.868 22.9678 127.678 23.4489C127.493 23.9299 127.4 24.5076 127.4 25.1818C127.4 25.8939 127.495 26.4905 127.684 26.9716C127.877 27.4489 128.156 27.8087 128.519 28.0511C128.883 28.2898 129.32 28.4091 129.832 28.4091C130.123 28.4091 130.385 28.3731 130.616 28.3011C130.847 28.2254 131.048 28.1174 131.218 27.9773C131.388 27.8371 131.527 27.6686 131.633 27.4716C131.743 27.2708 131.817 27.0455 131.854 26.7955L135.059 26.8182C135.021 27.3106 134.883 27.8125 134.644 28.3239C134.406 28.8314 134.067 29.3011 133.627 29.733C133.192 30.161 132.652 30.5057 132.008 30.767C131.364 31.0284 130.616 31.1591 129.763 31.1591C128.695 31.1591 127.737 30.9299 126.888 30.4716C126.044 30.0133 125.375 29.339 124.883 28.4489C124.394 27.5587 124.15 26.4697 124.15 25.1818C124.15 23.8864 124.4 22.7955 124.9 21.9091C125.4 21.0189 126.074 20.3466 126.923 19.892C127.771 19.4337 128.718 19.2045 129.763 19.2045C130.498 19.2045 131.174 19.3049 131.792 19.5057C132.409 19.7064 132.951 20 133.417 20.3864C133.883 20.7689 134.258 21.2405 134.542 21.8011C134.826 22.3617 134.998 23.0038 135.059 23.7273ZM147.174 19.3636V31H144.06V21.8636H140.129V31H137.015V19.3636H147.174ZM148.809 31V28.5682L149.127 28.5227C149.513 28.4621 149.834 28.2955 150.087 28.0227C150.345 27.7462 150.542 27.3087 150.678 26.7102C150.818 26.108 150.907 25.2879 150.945 24.25L151.127 19.3636H159.559V31H156.513V21.8182H154.036L153.854 25.4773C153.786 26.8333 153.604 27.9148 153.309 28.7216C153.013 29.5284 152.565 30.1098 151.962 30.4659C151.36 30.822 150.567 31 149.582 31H148.809ZM164.077 31H160.668L164.509 19.3636H168.827L172.668 31H169.259L166.714 22.5682H166.623L164.077 31ZM163.441 26.4091H169.85V28.7727H163.441V26.4091ZM172.002 21.9091V19.3636H182.116V21.9091H178.616V31H175.502V21.9091H172.002ZM183.305 31V19.3636H186.464V23.9091H190.646V19.3636H193.805V31H190.646V26.4545H186.464V31H183.305ZM197.305 23.2727H199.714C200.695 23.2727 201.551 23.4299 202.282 23.7443C203.017 24.0587 203.587 24.5019 203.992 25.0739C204.401 25.6458 204.604 26.3182 204.6 27.0909C204.604 27.8636 204.401 28.5436 203.992 29.1307C203.587 29.7178 203.017 30.1761 202.282 30.5057C201.551 30.8352 200.695 31 199.714 31H195.373V19.3636H198.532V28.5227H199.714C200.096 28.5227 200.416 28.4602 200.674 28.3352C200.935 28.2102 201.132 28.0379 201.265 27.8182C201.401 27.5985 201.468 27.3485 201.464 27.0682C201.468 26.6705 201.32 26.3409 201.021 26.0795C200.721 25.8144 200.286 25.6818 199.714 25.6818H197.305V23.2727ZM208.577 19.3636V31H205.418V19.3636H208.577ZM210.07 19.3636H213.229V25.4545H213.32L217.457 19.3636H220.138V31H216.979V24.8864H216.911L212.707 31H210.07V19.3636ZM216.252 16.2273H218.229C218.226 16.9659 217.943 17.5568 217.383 18C216.822 18.4394 216.067 18.6591 215.116 18.6591C214.157 18.6591 213.398 18.4394 212.837 18C212.277 17.5568 211.998 16.9659 212.002 16.2273H213.957C213.953 16.4659 214.038 16.6856 214.212 16.8864C214.39 17.0833 214.692 17.1818 215.116 17.1818C215.521 17.1818 215.811 17.0852 215.985 16.892C216.159 16.6989 216.248 16.4773 216.252 16.2273Z" fill="white"/>
</svg>
