<svg width="34" height="34" viewBox="0 0 34 34" fill="none" xmlns="http://www.w3.org/2000/svg">
<path fill-rule="evenodd" clip-rule="evenodd" d="M16.8254 33.6509C26.1179 33.6509 33.6509 26.1179 33.6509 16.8254C33.6509 7.53301 26.1179 0 16.8254 0C7.53301 0 0 7.53301 0 16.8254C0 26.1179 7.53301 33.6509 16.8254 33.6509ZM20.1878 8.72011C21.2425 9.15792 22.1995 9.80127 23.003 10.6127C24.6417 12.2514 25.5443 14.4334 25.5443 16.7557C25.5443 21.5404 21.6447 25.4401 16.86 25.4401C15.4053 25.4401 13.9768 25.072 12.7062 24.3797L8.10547 25.5891L9.33232 21.0847C8.57868 19.7703 8.17558 18.2805 8.17558 16.7469C8.17558 11.9622 12.0752 8.06255 16.86 8.06255C18.0019 8.05876 19.1331 8.28229 20.1878 8.72011ZM13.1794 22.9601C14.2923 23.6173 15.563 23.9679 16.86 23.9679C20.8385 23.9679 24.0809 20.7342 24.0634 16.7557C24.067 15.8067 23.8822 14.8664 23.5197 13.9894C23.1572 13.1124 22.6241 12.3161 21.9514 11.6467C20.5931 10.2797 18.7791 9.52601 16.8512 9.52601C12.8727 9.52601 9.63027 12.7684 9.63027 16.7469C9.63109 18.1046 10.0137 19.4347 10.7344 20.5852L10.9097 20.8569L10.1824 23.5209L12.9165 22.8023L13.1794 22.9601ZM20.5325 18.4295C20.6627 18.493 20.7673 18.5439 20.8209 18.5697C20.8643 18.5905 20.9042 18.6089 20.9408 18.6258C21.0893 18.6942 21.1836 18.7377 21.2328 18.8151C21.2942 18.9115 21.2942 19.3409 21.1101 19.8491C20.9349 20.3574 20.0673 20.8218 19.6467 20.8832C19.2699 20.9358 18.7966 20.9621 18.2796 20.7956C17.9641 20.6992 17.561 20.5677 17.044 20.3399C14.9662 19.4434 13.5693 17.4016 13.3586 17.0936C13.3489 17.0795 13.3418 17.069 13.3371 17.0624L13.3354 17.0601C13.2238 16.9114 12.452 15.8825 12.452 14.819C12.452 13.8326 12.9295 13.3087 13.1548 13.0615C13.1736 13.0408 13.1908 13.022 13.2057 13.005C13.4072 12.7859 13.6351 12.7334 13.7841 12.7334H14.2047C14.2199 12.7344 14.2358 12.7346 14.2524 12.7348C14.3786 12.7363 14.5405 12.7382 14.6954 13.1102C14.8707 13.5483 15.3089 14.6175 15.3614 14.7226C15.414 14.8278 15.4491 14.9505 15.379 15.0994C15.373 15.1114 15.3672 15.123 15.3615 15.1344C15.3009 15.2563 15.2561 15.3465 15.1599 15.4587C15.1263 15.4979 15.0909 15.5407 15.0552 15.5838C14.9791 15.6759 14.9013 15.7699 14.8356 15.8356C14.7217 15.9495 14.6166 16.0634 14.7393 16.2825C14.8707 16.5016 15.3001 17.2114 15.9486 17.7898C16.6529 18.4192 17.2675 18.6834 17.5679 18.8125C17.6188 18.8344 17.6607 18.8524 17.6925 18.8676C17.9116 18.9816 18.043 18.964 18.1657 18.8151C18.2884 18.6749 18.7002 18.1841 18.8492 17.965C18.9982 17.7547 19.1384 17.7898 19.34 17.8599C19.4856 17.9194 20.1309 18.2339 20.5325 18.4295Z" fill="white"/>
</svg>
